<svg width="321" height="321" viewBox="0 0 321 321" fill="none" xmlns="http://www.w3.org/2000/svg">
<path fill-rule="evenodd" clip-rule="evenodd" d="M160.861 40.0488C163.583 40.0488 166.244 40.214 168.903 40.5995L134.198 58.2216L119.165 59.3229C128.383 47.6484 143.601 40.0488 160.861 40.0488ZM67.0138 241.326C75.9222 243.749 85.573 245.896 95.7804 247.714L101.719 206.247H85.3873C82.9747 206.247 80.9332 204.485 80.9332 202.282C80.9332 200.079 82.9747 198.317 85.3873 198.317H102.833L111.308 139.228C109.329 140.385 107.411 141.596 105.431 142.863C68.8697 166.818 27.6067 230.642 67.0138 241.326ZM165.686 206.467H175.585C188.328 206.467 198.722 215.719 198.722 227.063C198.722 236.865 190.926 245.126 180.595 247.163L165.686 206.467ZM190.989 253C213.446 251.513 235.407 247.879 255.018 241.491C293.744 228.88 254.523 167.974 217.528 141.927C213.507 139.118 209.362 136.64 205.155 134.492C203.919 135.373 202.681 136.199 201.382 137.025L191.237 201.181C201.629 206.137 208.743 215.884 208.743 227.063C208.743 238.297 201.505 248.154 190.989 253ZM184.988 144.625C177.44 147.048 169.337 148.37 160.861 148.37C154.304 148.37 147.932 147.599 141.869 146.112L163.274 197.766H164.944L184.988 144.625ZM178.925 42.9675C184.803 44.95 190.184 47.9237 194.824 51.6133L145.457 57.8361L178.925 42.9675ZM200.825 57.2303C204.661 61.5808 207.63 66.537 209.547 71.9888L110.195 80.4694C110.875 74.7973 112.793 69.4005 115.577 64.5545L200.825 57.2303ZM111.803 97.5408C110.752 94.1816 110.133 90.6572 109.947 87.0776L144.9 81.5157L111.803 97.5408ZM160.861 33C193.34 33 219.694 56.4594 219.694 85.3705C219.694 114.282 193.34 137.686 160.861 137.686C128.383 137.686 102.029 114.282 102.029 85.3705C102.029 56.4594 128.383 33 160.861 33Z" fill="#152849"/>
<path fill-rule="evenodd" clip-rule="evenodd" d="M131.205 245.676C117.44 250.095 126.632 250.621 112.53 247.163L101.111 159.5L131.205 245.676Z" fill="#152849"/>
<circle cx="160.5" cy="160.5" r="153" stroke="#152849" stroke-width="15"/>
</svg>
