<svg width="37" height="36" viewBox="0 0 37 36" fill="none" xmlns="http://www.w3.org/2000/svg">
<path d="M18.7866 36C28.7277 36 36.7866 27.9411 36.7866 18C36.7866 8.05887 28.7277 0 18.7866 0C8.8455 0 0.786621 8.05887 0.786621 18C0.786621 27.9411 8.8455 36 18.7866 36Z" fill="#0277BD"/>
<path d="M18.7866 28.5C24.5856 28.5 29.2866 23.799 29.2866 18C29.2866 12.201 24.5856 7.5 18.7866 7.5C12.9876 7.5 8.28662 12.201 8.28662 18C8.28662 23.799 12.9876 28.5 18.7866 28.5ZM18.7866 33C27.0708 33 33.7866 26.2842 33.7866 18C33.7866 9.71572 27.0708 3 18.7866 3C10.5023 3 3.78662 9.71572 3.78662 18C3.78662 26.2842 10.5023 33 18.7866 33Z" fill="#043658"/>
<circle cx="18.7866" cy="18" r="10.5" fill="#0277BD"/>
<path d="M21.7866 11.25V18.75C21.7866 19.9926 20.7792 21 19.5366 21H12.0366C10.794 21 9.78662 19.9926 9.78662 18.75C9.78662 17.5074 10.794 16.5 12.0366 16.5H17.2866V11.25C17.2866 10.0074 18.294 9 19.5366 9C20.7792 9 21.7866 10.0074 21.7866 11.25Z" fill="#043658"/>
</svg>
