<svg width="321" height="321" viewBox="0 0 321 321" fill="none" xmlns="http://www.w3.org/2000/svg">
<path fill-rule="evenodd" clip-rule="evenodd" d="M186.349 52.9204C209.623 64.3151 227.515 89.2857 230.607 119.078C254.883 130.186 271 146.833 271 165.432C271 186.528 245.923 205.069 215.606 215.918C203.068 241.951 182.227 259 158.638 259C134.391 259 113.064 241.004 100.64 213.737C72.9571 202.687 51 185.179 51 165.432C51 148.182 64.8269 132.626 86.1828 121.604C88.5303 90.0607 107.482 63.5688 132.13 52.2316L132.874 64.9465C133.847 64.3725 134.82 63.8558 135.794 63.3679L140.66 43.9941C141.347 41.3249 143.065 39 145.985 39H171.979C174.899 39 176.588 41.3249 177.275 43.9941L182.571 63.9132C183.544 64.4586 184.517 65.0039 185.491 65.6067L186.349 52.9204ZM158.781 108.315C150.05 108.229 144.582 95.0261 144.525 86.272C144.496 81.0196 153.399 79.3836 158.638 79.4123C163.992 79.4697 173.009 81.1918 173.038 86.5877C173.095 95.2557 167.427 108.43 158.781 108.315ZM210.196 150.536V156.936H217.524C224.538 157.252 230.092 162.504 230.092 168.933C230.092 175.564 224.166 180.931 216.866 180.931C215.578 180.931 214.318 180.759 213.116 180.443C202.61 218.53 178.019 245.453 158.495 245.453C139.057 245.453 114.581 218.731 104.018 180.902C103.703 180.931 103.416 180.931 103.13 180.931C95.8302 180.931 89.9044 175.564 89.9044 168.933C89.9044 163.451 93.9694 158.802 99.5231 157.395H107.653V150.048C131.843 137.792 188.811 138.51 210.196 150.536Z" fill="#152849"/>
<circle cx="160.5" cy="160.5" r="153" stroke="#152849" stroke-width="15"/>
</svg>
