<svg width="59" height="59" viewBox="0 0 59 59" fill="none" xmlns="http://www.w3.org/2000/svg">
<path d="M31.9585 4.91663H14.7502C13.4462 4.91663 12.1956 5.43463 11.2736 6.35668C10.3515 7.27874 9.8335 8.52931 9.8335 9.83329V49.1666C9.8335 50.4706 10.3515 51.7212 11.2736 52.6432C12.1956 53.5653 13.4462 54.0833 14.7502 54.0833H44.2502C45.5541 54.0833 46.8047 53.5653 47.7268 52.6432C48.6488 51.7212 49.1668 50.4706 49.1668 49.1666V22.125L31.9585 4.91663Z" stroke="#152849" stroke-linecap="round" stroke-linejoin="round"/>
<path d="M31.9585 4.91663V22.125H49.1668" fill="#152849"/>
<path d="M31.9585 4.91663V22.125H49.1668" stroke="#152849" stroke-width="0.4" stroke-linecap="round" stroke-linejoin="round"/>
<path d="M24.1406 35.2871H25.2656C25.207 35.8262 25.0527 36.3086 24.8027 36.7344C24.5527 37.1602 24.1992 37.498 23.7422 37.748C23.2852 37.9941 22.7148 38.1172 22.0312 38.1172C21.5312 38.1172 21.0762 38.0234 20.666 37.8359C20.2598 37.6484 19.9102 37.3828 19.6172 37.0391C19.3242 36.6914 19.0977 36.2754 18.9375 35.791C18.7812 35.3027 18.7031 34.7598 18.7031 34.1621V33.3125C18.7031 32.7148 18.7812 32.1738 18.9375 31.6895C19.0977 31.2012 19.3262 30.7832 19.623 30.4355C19.9238 30.0879 20.2852 29.8203 20.707 29.6328C21.1289 29.4453 21.6035 29.3516 22.1309 29.3516C22.7754 29.3516 23.3203 29.4727 23.7656 29.7148C24.2109 29.957 24.5566 30.293 24.8027 30.7227C25.0527 31.1484 25.207 31.6426 25.2656 32.2051H24.1406C24.0859 31.8066 23.9844 31.4648 23.8359 31.1797C23.6875 30.8906 23.4766 30.668 23.2031 30.5117C22.9297 30.3555 22.5723 30.2773 22.1309 30.2773C21.752 30.2773 21.418 30.3496 21.1289 30.4941C20.8438 30.6387 20.6035 30.8438 20.4082 31.1094C20.2168 31.375 20.0723 31.6934 19.9746 32.0645C19.877 32.4355 19.8281 32.8477 19.8281 33.3008V34.1621C19.8281 34.5801 19.8711 34.9727 19.957 35.3398C20.0469 35.707 20.1816 36.0293 20.3613 36.3066C20.541 36.584 20.7695 36.8027 21.0469 36.9629C21.3242 37.1191 21.6523 37.1973 22.0312 37.1973C22.5117 37.1973 22.8945 37.1211 23.1797 36.9688C23.4648 36.8164 23.6797 36.5977 23.8242 36.3125C23.9727 36.0273 24.0781 35.6855 24.1406 35.2871ZM31.3535 35.8438C31.3535 35.6445 31.3223 35.4688 31.2598 35.3164C31.2012 35.1602 31.0957 35.0195 30.9434 34.8945C30.7949 34.7695 30.5879 34.6504 30.3223 34.5371C30.0605 34.4238 29.7285 34.3086 29.3262 34.1914C28.9043 34.0664 28.5234 33.9277 28.1836 33.7754C27.8438 33.6191 27.5527 33.4414 27.3105 33.2422C27.0684 33.043 26.8828 32.8145 26.7539 32.5566C26.625 32.2988 26.5605 32.0039 26.5605 31.6719C26.5605 31.3398 26.6289 31.0332 26.7656 30.752C26.9023 30.4707 27.0977 30.2266 27.3516 30.0195C27.6094 29.8086 27.916 29.6445 28.2715 29.5273C28.627 29.4102 29.0234 29.3516 29.4609 29.3516C30.1016 29.3516 30.6445 29.4746 31.0898 29.7207C31.5391 29.9629 31.8809 30.2812 32.1152 30.6758C32.3496 31.0664 32.4668 31.4844 32.4668 31.9297H31.3418C31.3418 31.6094 31.2734 31.3262 31.1367 31.0801C31 30.8301 30.793 30.6348 30.5156 30.4941C30.2383 30.3496 29.8867 30.2773 29.4609 30.2773C29.0586 30.2773 28.7266 30.3379 28.4648 30.459C28.2031 30.5801 28.0078 30.7441 27.8789 30.9512C27.7539 31.1582 27.6914 31.3945 27.6914 31.6602C27.6914 31.8398 27.7285 32.0039 27.8027 32.1523C27.8809 32.2969 28 32.4316 28.1602 32.5566C28.3242 32.6816 28.5312 32.7969 28.7812 32.9023C29.0352 33.0078 29.3379 33.1094 29.6895 33.207C30.1738 33.3438 30.5918 33.4961 30.9434 33.6641C31.2949 33.832 31.584 34.0215 31.8105 34.2324C32.041 34.4395 32.2109 34.6758 32.3203 34.9414C32.4336 35.2031 32.4902 35.5 32.4902 35.832C32.4902 36.1797 32.4199 36.4941 32.2793 36.7754C32.1387 37.0566 31.9375 37.2969 31.6758 37.4961C31.4141 37.6953 31.0996 37.8496 30.7324 37.959C30.3691 38.0645 29.9629 38.1172 29.5137 38.1172C29.1191 38.1172 28.7305 38.0625 28.3477 37.9531C27.9688 37.8438 27.623 37.6797 27.3105 37.4609C27.002 37.2422 26.7539 36.9727 26.5664 36.6523C26.3828 36.3281 26.291 35.9531 26.291 35.5273H27.416C27.416 35.8203 27.4727 36.0723 27.5859 36.2832C27.6992 36.4902 27.8535 36.6621 28.0488 36.7988C28.248 36.9355 28.4727 37.0371 28.7227 37.1035C28.9766 37.166 29.2402 37.1973 29.5137 37.1973C29.9082 37.1973 30.2422 37.1426 30.5156 37.0332C30.7891 36.9238 30.9961 36.7676 31.1367 36.5645C31.2812 36.3613 31.3535 36.1211 31.3535 35.8438ZM36.6855 36.7051L39.1992 29.4688H40.4238L37.2656 38H36.3926L36.6855 36.7051ZM34.3359 29.4688L36.8262 36.7051L37.1367 38H36.2637L33.1113 29.4688H34.3359Z" fill="black"/>
</svg>
