<svg width="555" height="555" viewBox="0 0 555 555" fill="none" xmlns="http://www.w3.org/2000/svg">
<circle cx="277.5" cy="277.5" r="277.5" fill="#FF9900"/>
<path d="M145.106 124H229.531L292.85 188.47V200.75H267.906C256.298 200.75 246.906 210.42 246.906 222.24V231.45H166.213V252.94H246.906V274.43H166.213V295.92H246.906V338.9H145.001C133.392 338.9 124 329.229 124 317.41L124.106 145.49C124.106 133.67 133.498 124 145.106 124ZM218.978 140.118V199.215H277.02L218.978 140.118ZM367.681 216.1H283.256C271.648 216.1 262.256 225.771 262.256 237.59L262.15 409.51C262.15 421.329 271.542 431 283.151 431H409.894C421.502 431 431 421.329 431 409.51V280.57L367.681 216.1ZM388.788 388.02H304.362V366.53H388.788V388.02ZM388.788 345.04H304.362V323.55H388.788V345.04ZM357.128 291.315V232.218L415.17 291.315H357.128Z" fill="#83471E" stroke="#FF0000" stroke-width="0.4"/>
</svg>
