<svg width="74" height="282" viewBox="0 0 74 282" fill="none" xmlns="http://www.w3.org/2000/svg">
<path d="M70.1945 169.752C66.8508 164.412 67.3234 165.015 67.8343 157.956C69.4132 136.037 70.7136 119.272 69.3204 97.5376C68.1129 78.7757 52.3697 84.7665 45.4036 80.9584L45.3572 74.4104C53.1127 72.1812 56.6422 66.7013 57.2923 58.0634C62.958 56.7166 64.6299 45.896 59.893 43.8991C60.1257 28.4652 58.9663 20.4002 52.4161 17.7068C46.6522 13.6022 23.4897 12.6176 17.7516 20.4002C12.5503 27.5056 13.9171 35.1219 14.4744 43.8527C8.29787 45.5245 10.3207 56.6232 16.3115 58.0628C16.8223 63.357 17.0751 65.2616 19.815 68.8375C22.3228 72.1348 24.0876 72.5063 28.3601 74.4568L28.2672 81.1906C18.6076 82.3981 7.55483 81.5157 4.44334 94.0081C0.495917 109.937 4.95417 144.953 6.20806 162.74C6.4867 166.687 5.24104 166.966 3.56919 169.659C1.66514 172.678 1.8509 172.678 2.82614 176.625C3.47631 179.18 4.25756 181.641 5.65077 183.406C6.44026 184.427 9.10869 186.298 10.9663 186.251C12.6846 183.279 11.1307 183.406 9.27312 181.641C8.67762 179.048 9.50531 175.798 10.2948 174.172C10.945 175.38 11.3405 177.969 12.2228 178.712C13.8018 179.966 15.0528 178.625 15.2386 176.953C16.4924 165.296 13.7307 168.911 12.9883 157.26C12.8955 147.414 12.106 112.491 15.4032 103.807L16.5205 181.35L20.0472 269.134C18.4683 269.738 10.9914 273.639 10.1555 274.939C9.366 276.193 9.78396 278.655 11.7344 279.026C15.7283 279.816 22.2299 279.491 26.3167 279.305C32.4468 279.073 31.4251 273.871 31.518 268.484L35.5559 181.35L34.4902 174.907C35.9763 174.443 37.741 174.582 39.2735 174.814L38.8505 181.716L42.1064 269.599C42.1064 274.068 41.3585 279.418 47.4006 279.63C51.6266 279.769 58.314 280.094 62.4472 279.351C64.4441 278.933 64.8621 276.565 64.0262 275.357C61.982 273.455 56.9558 271.445 53.67 269.32L56.7876 181.716L56.4215 153.163L58.0818 103.807C60.636 111.934 61.5648 157.446 60.5431 163.761C60.0323 166.966 58.09 168.444 58.2758 172.67C58.4151 176.106 58.2758 178.863 61.2944 178.863C62.1768 177.609 62.8652 175.937 63.1903 174.079C65.249 177.958 64.9977 180.22 64.4441 181.78C63.2367 182.43 62.7524 183.2 61.7307 183.99C61.2944 188.262 67.5234 185.013 68.9488 181.827C69.7383 180.062 70.5196 178.289 71.0304 176.292C71.8663 172.995 71.727 172.214 70.1945 169.752Z" fill="#ECBD80"/>
<path d="M24.5752 210.296C24.5752 210.296 19.7949 209.447 19.4504 217.087C19.4504 217.087 19.9673 226.311 24.5753 225.604L24.5752 210.296Z" fill="#E2B076"/>
<path d="M32.9948 181.715L30.0662 264.446H31.5305L32.2626 251.999L32.6287 243.946L35.5572 181.715H32.9948Z" fill="#E2B076"/>
<path d="M53.8561 264.446L54.2208 251.999L54.5855 242.482L54.9501 231.866L55.3148 221.982L56.0441 201.116L56.7902 181.715H54.9501L52.3974 264.446H53.8561Z" fill="#E2B076"/>
<path d="M46.5548 210.16C46.5548 210.16 51.1816 209.358 51.5481 217.018C51.5481 217.018 51.6397 226.286 46.7381 225.577L46.5548 218.198V210.16Z" fill="#E2B076"/>
<path d="M69.5217 127.948C69.5217 127.948 66.3123 129.099 67.0554 133.79C67.0554 133.79 67.5903 139.344 69.0764 139.344L69.3309 133.79L69.5217 127.948Z" fill="#E2B076"/>
<path d="M3.46973 129.07C3.46973 129.07 7.18494 129.906 6.34901 134.596C6.34901 134.596 5.88461 140.216 4.2592 140.216L3.88769 134.596L3.46973 129.07Z" fill="#E2B076"/>
<path d="M10.2992 131.93C10.8212 114.841 11.9336 108.629 15.4241 103.743C14.5568 106.752 14.2487 108.252 13.9599 110.699C13.6363 113.518 13.4759 115.566 13.2278 118.752C13.041 123.914 12.9606 126.8 12.8617 131.93C12.7843 142.654 12.8617 148.403 12.8617 159.019C11.2791 153.783 10.9909 147.967 10.2992 131.93Z" fill="#E2B076"/>
<path d="M63.3784 132.483C62.8564 115.28 61.744 109.027 58.2535 104.109C58.9856 107.404 59.0629 108.602 59.3517 111.064C59.7178 113.993 59.8357 116.277 60.0838 119.484C60.2706 124.68 60.5242 127.318 60.6231 132.483C60.816 143.278 61.182 150.599 60.816 159.751C62.3985 154.48 62.6868 148.626 63.3784 132.483Z" fill="#E2B076"/>
<path d="M45.3363 80.9864C42.615 82.3366 40.8055 82.9604 37.2093 83.7728C33.332 83.762 31.3171 83.2436 28.3149 81.2186L28.315 74.5027C28.315 74.5027 35.4668 75.7566 45.3122 74.5027L45.3363 80.9864Z" fill="#E2B076"/>
<path d="M29.1967 65.4007C29.1502 67.4905 29.9861 67.4905 32.076 68.1871C36.9057 69.859 44.8935 68.698 44.4755 65.4936C43.0823 64.797 40.0172 66.9797 36.9522 67.0261C34.1658 67.0725 30.079 64.8434 29.1967 65.4007Z" fill="#BD864D"/>
<path d="M33.0044 58.1555C32.1684 58.8521 32.7722 60.2453 34.444 60.0596C34.5369 60.0596 34.6298 60.0131 34.7226 60.0131C35.2799 61.2206 36.2552 62.0101 37.5555 61.7314C38.4843 61.5457 39.1345 60.8955 39.506 60.0596C39.6918 60.106 39.9704 60.106 40.2026 60.0596C41.4565 59.9203 41.7816 58.9914 41.3172 58.3413C41.1778 58.8521 40.7134 59.3165 40.0168 59.363C39.7846 59.4094 39.5524 59.363 39.3667 59.363C38.9952 60.2453 38.3914 60.9419 37.5555 61.1741C36.3016 61.4992 35.4192 60.6169 34.9084 59.363C34.8155 59.363 34.7227 59.4094 34.6298 59.4094C33.4688 59.5487 32.865 58.8986 33.0044 58.1555Z" fill="#BD864D"/>
<path d="M59.8931 43.5272C61.2284 26.6702 59.1153 21.1567 54.1917 17.8744C47.4064 13.3508 25.0399 10.5864 17.5004 20.136C11.9717 29.4346 13.8949 34.6392 14.4522 43.3699C14.5915 43.3235 14.3128 43.4164 14.4522 43.3699C14.6379 44.6703 15.1487 47.5496 15.1487 48.2462C17.9352 50.5682 17.703 47.4103 17.9352 44.531C17.9352 37.8615 17.6525 32.819 19.8381 30.1216C22.0237 27.4241 35.0216 34.8807 36.2791 31.5277H39.7621C41.3875 37.1005 54.0439 30.1216 54.0439 30.1216C57.5269 33.2975 56.7898 37.1124 56.7898 42.1059C56.8827 43.8706 56.503 49.9824 58.4535 48.6357C59.5216 47.8926 59.5216 45.1526 59.8467 43.8988L59.8931 43.5272Z" fill="#773A26"/>
<path d="M26.4103 48.7284C23.2988 49.7037 24.0419 56.7161 27.3856 55.9731C30.7757 55.2301 29.9398 47.6139 26.4103 48.7284Z" fill="#773A26"/>
<path d="M46.9835 48.868C45.8689 49.3324 45.9618 48.9609 45.4045 50.4005C44.3828 53.0476 45.6832 56.9021 48.2838 55.834C51.6275 54.5337 50.2343 47.5212 46.9835 48.868Z" fill="#773A26"/>
<path d="M32.6335 46.4064C33.2727 45.415 32.6335 44.763 26.5276 42.6732C24.9993 43.5593 23.5772 43.9059 20.9548 44.2986C22.1158 44.2986 24.9244 44.6417 26.782 44.9667C28.8718 45.2918 30.9152 46.9637 32.6335 46.4064Z" fill="#773A26"/>
<path d="M48.121 42.6732C45.3347 42.9054 41.6192 44.5309 42.0599 46.1278C42.7101 47.3353 46.3324 45.2919 47.6791 45.0133C49.4827 44.5895 50.5652 44.5499 52.7652 44.763C50.6319 43.9983 49.5924 43.5547 48.121 42.6732Z" fill="#773A26"/>
<path d="M16.155 153.219V181.298C26.3061 181.298 25.958 181.548 35.7746 181.548L35.5588 174.796C36.8369 174.732 37.2084 174.796 39.0661 174.796L38.4849 181.716C51.1495 181.787 45.677 181.616 57.1542 181.762L56.565 152.969C43.5567 157.206 27.5776 156.457 16.155 153.219Z" fill="#3F3F3F"/>
<path d="M15.4897 108.094C23.5316 102.465 23.8667 88.0733 23.029 81.7069L25.5421 81.4556C25.3746 88.2409 29.3117 99.0472 36.5997 99.0472C46.4007 99.0472 47.406 87.7383 47.9086 81.9582L50.673 82.2095C47.9086 101.309 54.7777 107.927 57.9609 108.094L56.4531 152.827C43.184 158.054 24.118 155.508 16.2437 153.581L15.4897 108.094Z" fill="#B3B3B3"/>
<path d="M57.2975 169.54C57.3567 168.854 58.5738 165.164 58.6393 163.611C58.7049 162.058 58.3907 160.175 58.6642 156.373C58.994 151.788 59.7756 139.824 59.2295 137.948C59.2295 137.948 67.9207 139.273 72.3444 134C72.5585 143.211 68.2131 161.311 68.541 164.173C68.8689 167.035 71.2832 168.189 72.6388 171.048C73.0669 171.747 72.9955 172.704 72.9955 172.704C72.9955 172.704 71.6203 179.898 70.7909 181.638C70.7909 181.638 69.6654 184.328 67.6513 185.594C67.6513 185.594 62.6325 188.995 61.849 188C61.0656 187.005 60.828 186.195 61.0656 185.449C61.3031 184.704 61.5924 184.532 62.3792 183.853C64.2787 182.214 64.5156 182.605 64.2787 178.544C64.1037 177.246 63.727 176.11 63.2347 175.122C62.6547 176.268 62.8111 177.663 62.1803 178.83C62.1803 178.83 61.473 179.98 59.7201 180.309C59.7201 180.309 58.2089 180.582 57.4231 178.393L57 174.671L57.2975 169.54Z" fill="#004A7C"/>
<path d="M73.0115 172.634C68.9344 171.514 65.1237 176.89 64.2787 178.482C67.5574 173.38 71.1526 172.447 73 173.007L73.0115 172.634Z" fill="white"/>
<path d="M63.2295 175.122C61.7213 172.136 59.0328 170.332 57.3935 169.461C60.2787 171.26 62.3771 173.38 63.0328 175.62L63.2295 175.122Z" fill="white"/>
<path d="M68.541 163.862C67.0328 160.876 64.3443 159.258 62.7049 158.387C65.5902 160.186 68.0164 162.929 68.541 164.173V163.862Z" fill="white"/>
<path d="M15.7211 169.54C15.6656 168.854 14.5246 165.164 14.4631 163.611C14.4016 162.058 14.6962 160.175 14.4398 156.373C14.1306 151.788 13.3979 139.824 13.9098 137.948C13.9098 137.948 5.7618 139.273 1.61461 134C1.41394 143.211 5.48771 161.311 5.18033 164.173C4.87295 167.035 2.60955 168.189 1.33863 171.048C0.93729 171.747 1.00418 172.704 1.00418 172.704C1.00418 172.704 2.29351 179.898 3.071 181.638C3.071 181.638 4.12616 184.328 6.01436 185.594C6.01436 185.594 10.7196 188.995 11.454 188C12.1885 187.005 12.4112 186.195 12.1885 185.449C11.9658 184.704 11.6946 184.532 10.957 183.853C9.17623 182.214 8.95409 182.605 9.17623 178.544C9.34026 177.246 9.69345 176.11 10.155 175.122C10.6987 176.268 10.5521 177.663 11.1434 178.83C11.1434 178.83 11.8065 179.98 13.4499 180.309C13.4499 180.309 14.8667 180.582 15.6034 178.393L16 174.671L15.7211 169.54Z" fill="#004A7C"/>
<path d="M0.989258 172.634C4.81147 171.514 8.38401 176.89 9.17625 178.482C6.10246 173.38 2.73197 172.447 0.999996 173.007L0.989258 172.634Z" fill="white"/>
<path d="M10.1598 175.122C11.5738 172.136 14.0943 170.332 15.6311 169.461C12.9262 171.26 10.959 173.38 10.3443 175.62L10.1598 175.122Z" fill="white"/>
<path d="M5.18032 163.862C6.59426 160.876 9.11475 159.258 10.6516 158.387C7.94672 160.186 5.67213 162.929 5.18032 164.173V163.862Z" fill="white"/>
<path d="M32.1924 277.966C30.4204 278.541 28.6187 278.508 24.2424 278.904C21.7127 280.103 18.3677 280.554 15.1453 280.521C18.948 280.138 23.1442 278.904 24.8657 276.574C29.2421 276.178 28.4212 276.211 30.1932 275.636C30.8471 272.189 31.9332 269.211 30.7177 266.629C30.7177 266.629 30.4408 250.74 30.1932 237.68L33.9325 237.365C34.1801 250.425 32.7169 266.406 32.7169 266.406C35.338 272.859 32.8463 274.519 32.1924 277.966Z" fill="#B88329"/>
<path d="M5.96494 278.904C4.45682 277.456 3.93252 268.966 10.4234 269.796C12.7837 269.157 14.1738 265.363 17.6082 264.348C17.6082 264.348 16.5666 251.677 15.8669 234.781C17.9435 235.852 23.7161 237.931 30.1933 237.68C30.4409 250.741 30.7178 266.629 30.7178 266.629C31.9333 269.211 30.8472 272.189 30.1933 275.636C28.4213 276.211 29.2422 276.178 24.8658 276.574C23.1443 278.904 18.9481 280.138 15.1454 280.521C10.4772 280.521 7.08 279.443 5.96494 278.904Z" fill="#E29600"/>
<path d="M32.1924 277.967C30.4204 278.541 28.6187 278.508 24.2424 278.904C18.8157 281.478 9.63658 280.604 5.96484 278.904C6.18392 279.689 6.57705 280.201 7.12671 280.201C8.58755 281.542 19.4713 283.265 23.9829 280.604C28.3593 280.208 30.161 280.241 31.9329 279.667C32.0368 279.119 32.1222 278.551 32.1924 277.967Z" fill="#805A19"/>
<path d="M34.4426 226C35.3605 229.447 34.4426 237.927 34.4426 237.927C34.2037 237.967 33.9659 238.004 33.7291 238.038C25.8806 239.164 19.3385 238.761 15.8207 237.067C15.1894 236.762 14.6605 236.469 14.2458 236.205C14.2458 236.205 12.915 232.32 13.9641 226H34.4426Z" fill="#805A19"/>
<path d="M41.6573 277.966C43.3739 278.541 45.1192 278.508 49.3588 278.904C51.8094 280.103 55.0499 280.554 58.1716 280.521C54.4877 280.138 50.4227 278.904 48.7549 276.574C44.5153 276.178 45.3106 276.211 43.594 275.636C42.9605 272.189 41.9083 269.211 43.0859 266.629C43.0859 266.629 43.3541 250.74 43.594 237.68L39.9716 237.365C39.7317 250.425 41.1491 266.406 41.1491 266.406C38.61 272.859 41.0238 274.519 41.6573 277.966Z" fill="#B88329"/>
<path d="M67.0652 278.904C68.5262 277.456 69.0341 268.966 62.7461 269.796C60.4596 269.157 59.1129 265.363 55.7858 264.348C55.7858 264.348 56.7949 251.677 57.4727 234.781C55.4609 235.852 49.8688 237.931 43.594 237.68C43.3542 250.741 43.0859 266.629 43.0859 266.629C41.9083 269.211 42.9605 272.189 43.594 275.636C45.3106 276.211 44.5153 276.178 48.755 276.574C50.4227 278.904 54.4877 280.138 58.1717 280.521C62.694 280.521 65.985 279.443 67.0652 278.904Z" fill="#E29600"/>
<path d="M41.6572 277.967C43.3739 278.541 45.1192 278.508 49.3588 278.904C54.616 281.478 63.5082 280.604 67.0652 278.904C66.853 279.689 66.4721 280.201 65.9396 280.201C64.5244 281.542 53.9808 283.265 49.6102 280.604C45.3705 280.208 43.6252 280.241 41.9086 279.667C41.8079 279.119 41.7252 278.551 41.6572 277.967Z" fill="#805A19"/>
<path d="M39.4774 226C38.5882 229.447 39.4774 237.927 39.4774 237.927C39.7088 237.967 39.9392 238.004 40.1685 238.038C47.7718 239.164 54.1094 238.761 57.5173 237.067C58.1289 236.762 58.6413 236.469 59.043 236.205C59.043 236.205 60.3322 232.32 59.3159 226H39.4774Z" fill="#805A19"/>
<path d="M47.8242 63.6677L57 60.8284L56.3957 62.9579L48.2088 65.4696L47.8242 63.6677Z" fill="#00C8C8"/>
<path d="M17 60.2278L26.8901 62.9579L26.3956 64.9236L17.8791 63.0125L17 60.2278Z" fill="#95E8C8"/>
<path d="M47.8964 63.7264L46.3206 57.5127L46.2961 57.4306C44.9864 53.5842 41.3609 51 37.2747 51V77.9975L39.5181 78C41.5678 77.4668 43.524 76.3362 45.0259 74.8165C46.6511 73.1721 47.6621 71.1881 47.9494 69.0797L48.2153 67.1262C48.3701 65.9898 48.2598 64.8152 47.8964 63.7264Z" fill="#80DBFF"/>
<path d="M26.6727 63.7264L28.2485 57.5127L28.273 57.4306C29.5826 53.5842 33.2082 51 37.2944 51V77.9975L35.051 78C33.0012 77.4668 31.0451 76.3362 29.5432 74.8165C27.918 73.1721 26.907 71.1881 26.6197 69.0797L26.3538 67.1262C26.199 65.9898 26.3093 64.8152 26.6727 63.7264Z" fill="#B5EFFF"/>
<path d="M37.2747 66.2459H38.3607V69.9987H37.2747V66.2459Z" fill="#2864F0"/>
<path d="M37.2874 55.5994V57.7835C38.7488 57.7835 39.9248 58.9525 39.9248 60.4044L42.1098 60.3914C42.1095 57.749 39.9465 55.5994 37.2874 55.5994Z" fill="#2864F0"/>
<path d="M37.262 66.2461H36.1759V69.999H37.262V66.2461Z" fill="#4A98F7"/>
<path d="M37.2747 55.5867V57.7708C35.8133 57.7708 34.6373 58.9398 34.6373 60.3917H32.4395C32.4398 57.7492 34.6156 55.5867 37.2747 55.5867Z" fill="#4A98F7"/>
<path d="M36.9111 12C23.2585 12 12.1685 22.2711 12.1685 34.9158V43.1H14.8195V35.2023C14.8195 23.7444 24.7166 14.4553 36.9111 14.4553C49.1055 14.4553 59.0026 23.7444 59.0026 35.2023V43.1H61.6536V34.9158C61.6535 22.2711 50.5636 12 36.9111 12Z" fill="#324D5B"/>
<path d="M14.8225 40.8C2.67053 40.8 12.7088 60.2844 16.5463 56.5C18.4556 54.6173 16.4417 53.05 16.4417 48.65C16.4417 44.25 16.7887 40.8 14.8225 40.8Z" fill="#26A6D1"/>
<path d="M59.0031 40.8C71.5191 40.8 61.1801 60.2993 57.2275 56.512C55.2611 54.6278 57.3353 53.0594 57.3353 48.656C57.3353 44.2527 56.9779 40.8 59.0031 40.8Z" fill="#26A6D1"/>
<path d="M15.7683 56.9001C16.9851 56.9001 17.6175 55.8501 17.6175 55.5001L16.4006 42.1567C16.1739 40.6501 14.7035 40.3561 13.9937 40.8001C12.8275 46.2001 15.7683 56.9001 15.7683 56.9001Z" fill="#208DB2"/>
<path d="M58.001 56.9001C56.7345 56.9001 56.0764 55.8494 56.0764 55.4992L57.3429 42.1467C57.5789 40.6391 59.1092 40.3449 59.848 40.7892C61.0616 46.1929 58.001 56.9001 58.001 56.9001Z" fill="#208DB2"/>
<path d="M65.75 32.8474C64.5125 32.8474 63.4999 31.9244 63.4999 30.7964V27.2072C63.4999 16.1321 55.3999 6.28757 44.3749 3.10859V1.98058C44.3749 0.955089 43.3623 0.0322266 42.2374 0.0322266H30.7624C29.6374 0.0322266 28.625 0.955201 28.625 1.98058V3.10859C17.6 6.18506 9.49995 15.6194 9.49995 26.6945V30.7964C9.49995 31.9244 8.48739 32.8474 7.24991 32.8474H5V39.0002H68V32.8474H65.75V32.8474Z" fill="#E29600"/>
<path d="M59.7423 32.7511H13.2578C12.4375 32.7511 11.8906 32.2576 11.8906 31.5173C11.8906 30.777 12.4375 30.2835 13.2578 30.2835H59.7422C60.5625 30.2835 61.1094 30.777 61.1094 31.5173C61.1094 32.2576 60.5625 32.7511 59.7423 32.7511Z" fill="#FFBD4A"/>
<path d="M44.375 12.1134C43.7105 12.1134 43.2676 11.5152 43.2676 10.6179V4.63603C43.2676 3.73869 43.7105 3.14052 44.375 3.14052C45.0395 3.14052 45.4824 3.73869 45.4824 4.63603V10.6179C45.4824 11.5152 45.0395 12.1134 44.375 12.1134Z" fill="#FFBD4A"/>
<path d="M28.625 12.1134C27.9605 12.1134 27.5176 11.5152 27.5176 10.6179V4.63603C27.5176 3.73869 27.9605 3.14052 28.625 3.14052C29.2895 3.14052 29.7324 3.73869 29.7324 4.63603V10.6179C29.7324 11.5152 29.2895 12.1134 28.625 12.1134Z" fill="#FFBD4A"/>
<path d="M36.5 19.2917C35.8355 19.2917 35.3926 18.7406 35.3926 17.9137V1.378C35.3926 0.551171 35.8355 0 36.5 0C37.1645 0 37.6074 0.551171 37.6074 1.378V17.9137C37.6074 18.6027 37.1645 19.2917 36.5 19.2917Z" fill="#FFBD4A"/>
<path d="M50.7874 5.97975L46.4052 23.1613L59.1124 13.6708C56.9749 10.5944 54.1625 7.92822 50.7874 5.97975Z" fill="#FFBD4A"/>
<path d="M22.2125 5.97975L27.2715 23.666L13.8875 13.6709C16.0249 10.5944 18.8374 7.92822 22.2125 5.97975Z" fill="#FFBD4A"/>
</svg>
