<svg width="14" height="20" viewBox="0 0 14 20" fill="none" xmlns="http://www.w3.org/2000/svg">
<g clip-path="url(#clip0_1_2)">
<path d="M0.000199318 1.32288H13.1072V19.2H0.000199318V1.32288Z" fill="#888888"/>
<path d="M3.52744 0H9.61963V1.92402H3.52744V0Z" fill="#888888"/>
<path d="M10.8219 5.20923H11.7844V7.37388H10.8219V5.20923Z" fill="white"/>
<path d="M6.6938 5.20935H7.65552V7.3738H6.6938V5.20935Z" fill="white"/>
<path d="M2.56484 5.20935H3.52734V7.3738H2.56484V5.20935Z" fill="white"/>
<path d="M9.6195 5.20935H10.582V7.3738H9.6195V5.20935Z" fill="white"/>
<path d="M5.4914 5.20935H6.45312V7.3738H5.4914V5.20935Z" fill="white"/>
<path d="M1.36245 5.20935H2.32495V7.3738H1.36245V5.20935Z" fill="white"/>
<path d="M10.7422 9.93909H11.7039V12.1037H10.7422V9.93909Z" fill="white"/>
<path d="M6.61331 9.93921H7.57581V12.1037H6.61331V9.93921Z" fill="white"/>
<path d="M2.48518 9.93921H3.4469V12.1037H2.48518V9.93921Z" fill="white"/>
<path d="M9.53988 9.93921H10.5016V12.1037H9.53988V9.93921Z" fill="white"/>
<path d="M5.41096 9.93921H6.37268V12.1037H5.41096V9.93921Z" fill="white"/>
<path d="M5.45073 16.9136H7.69604V20.0001H5.45073V16.9136Z" fill="white"/>
<path d="M1.28279 9.93921H2.24451V12.1037H1.28279V9.93921Z" fill="white"/>
<path d="M10.782 14.549H11.7445V16.7134H10.782V14.549Z" fill="white"/>
<path d="M2.52485 14.5486H3.48657V16.7133H2.52485V14.5486Z" fill="white"/>
<path d="M8.29675 16.0319V16.7133H4.92956V16.0319H8.29675Z" fill="white"/>
<path d="M9.57958 14.5486H10.5413V16.7133H9.57958V14.5486Z" fill="white"/>
<path d="M1.32258 14.5486H2.2843V16.7133H1.32258V14.5486Z" fill="white"/>
</g>
<defs>
<clipPath id="clip0_1_2">
<rect width="14" height="20" fill="white"/>
</clipPath>
</defs>
</svg>
