<svg width="7" height="17" viewBox="0 0 7 17" fill="none" xmlns="http://www.w3.org/2000/svg">
<path d="M1.16699 0.5H5.83366V16.5H1.16699V0.5Z" stroke="#152849"/>
<path d="M1.15527 2.6377H3.207V3.51701H1.15527V2.6377Z" fill="#152849"/>
<path d="M1.15527 0.944336H3.207V1.82365H1.15527V0.944336Z" fill="#152849"/>
<path d="M1.15527 4.10352H4.37941V4.98283H1.15527V4.10352Z" fill="#152849"/>
<path d="M1.15527 5.56885H3.207V6.44816H1.15527V5.56885Z" fill="#152849"/>
<path d="M1.15527 7.03467H3.207V7.91398H1.15527V7.03467Z" fill="#152849"/>
<path d="M1.15527 8.5H3.207V9.37931H1.15527V8.5Z" fill="#152849"/>
<path d="M1.15527 9.96533H4.37941V10.8446H1.15527V9.96533Z" fill="#152849"/>
<path d="M1.15527 11.4312H3.207V12.3105H1.15527V11.4312Z" fill="#152849"/>
<path d="M1.15527 12.8965H3.207V13.7758H1.15527V12.8965Z" fill="#152849"/>
<path d="M1.15527 14.3623H3.207V15.2416H1.15527V14.3623Z" fill="#152849"/>
</svg>
