<svg width="19" height="18" viewBox="0 0 19 18" fill="none" xmlns="http://www.w3.org/2000/svg">
<path d="M17.4312 8.80765C17.4312 13.0165 13.9469 16.4615 9.60771 16.4615C5.2685 16.4615 1.78418 13.0165 1.78418 8.80765C1.78418 4.59877 5.2685 1.15381 9.60771 1.15381C13.9469 1.15381 17.4312 4.59877 17.4312 8.80765Z" stroke="#152849" stroke-width="2"/>
<path d="M6.32704 10.3638H5.47255V6.80908H6.32704V10.3638ZM8.04823 6.80908L8.84169 9.28223L9.63271 6.80908H10.7606V10.3638H9.90126V9.53369L9.98427 7.83447L9.12489 10.3638H8.55849L7.69667 7.83203L7.77968 9.53369V10.3638H6.92275V6.80908H8.04823ZM14.1835 9.16016C14.1721 9.40755 14.1054 9.62646 13.9833 9.81689C13.8612 10.0057 13.6895 10.1522 13.4682 10.2563C13.2484 10.3605 12.997 10.4126 12.7138 10.4126C12.2466 10.4126 11.8788 10.2604 11.6102 9.95605C11.3417 9.65169 11.2074 9.22201 11.2074 8.66699V8.49121C11.2074 8.1429 11.2676 7.83854 11.3881 7.57812C11.5101 7.31608 11.6851 7.11426 11.913 6.97266C12.1408 6.82943 12.4045 6.75781 12.704 6.75781C13.1353 6.75781 13.482 6.87174 13.744 7.09961C14.0061 7.32585 14.155 7.63835 14.1908 8.03711H13.3363C13.3298 7.82064 13.2753 7.6652 13.1727 7.5708C13.0702 7.4764 12.914 7.4292 12.704 7.4292C12.4908 7.4292 12.3345 7.50895 12.2352 7.66846C12.136 7.82796 12.0839 8.08268 12.079 8.43262V8.68408C12.079 9.06331 12.1262 9.33431 12.2206 9.49707C12.3166 9.65983 12.481 9.74121 12.7138 9.74121C12.9107 9.74121 13.0613 9.69482 13.1654 9.60205C13.2696 9.50928 13.3249 9.36198 13.3314 9.16016H14.1835Z" fill="#152849"/>
</svg>
