<svg width="210" height="200" viewBox="0 0 210 200" fill="none" xmlns="http://www.w3.org/2000/svg">
<path d="M189.165 99.9997C189.165 50.7543 149.244 10.833 99.9987 10.833C50.7533 10.833 10.832 50.7543 10.832 99.9997C10.832 149.245 50.7533 189.166 99.9987 189.166C113.985 189.166 127.219 185.946 139 180.207M99.9987 135.666V89M99.9987 64.333C100.034 64.333 100.088 64.333 100.088 64.333" stroke="black" stroke-width="20" stroke-linecap="round" stroke-linejoin="round"/>
<path d="M203.093 126.217C205.827 122.964 203.515 118 199.266 118H138.734C134.485 118 132.173 122.964 134.907 126.217L159.628 155.628C160.385 156.529 160.8 157.668 160.8 158.845V179C160.8 181.761 163.039 184 165.8 184H172.2C174.961 184 177.2 181.761 177.2 179V158.845C177.2 157.668 177.615 156.529 178.372 155.628L203.093 126.217Z" fill="black" stroke="black" stroke-width="2" stroke-linecap="round" stroke-linejoin="round"/>
</svg>
