<svg width="211" height="53" viewBox="0 0 211 53" fill="none" xmlns="http://www.w3.org/2000/svg">
<path fill-rule="evenodd" clip-rule="evenodd" d="M50.5178 29.0622V31.9251C50.5178 32.7912 49.8115 33.4889 48.9346 33.4889H45.8655C45.354 35.7022 44.4771 37.7953 43.2836 39.6478L45.4514 41.7889C46.0604 42.4144 46.0604 43.4008 45.4514 44.0023L41.4081 47.9959C40.7991 48.5974 39.7761 48.5974 39.1672 47.9959L36.9993 45.8547C35.0994 47.0336 33.0047 47.8997 30.7638 48.4049V51.4362C30.7638 52.3023 30.0574 53 29.1805 53H23.4564C22.5796 53 21.8732 52.3023 21.8732 51.4362V48.4049C19.6323 47.8997 17.5375 47.0336 15.6376 45.8547L13.4698 47.9959C12.8609 48.5974 11.8622 48.5974 11.2289 47.9959L7.18552 44.0023C6.57657 43.4008 6.57657 42.4144 7.18552 41.7889L9.35335 39.6478C8.15982 37.7953 7.28295 35.7022 6.77144 33.4889H3.70237C2.82549 33.4889 2.11912 32.7912 2.11912 31.9251V29.0622H13.2749V29.1103C13.2749 36.2074 19.1208 41.9814 26.3307 41.9814C33.5162 41.9814 39.362 36.2074 39.362 29.1103V29.0622H50.5178ZM1.46146 21.2433H3.1665C3.62929 14.4349 7.08809 8.44439 12.2519 4.54698V13.5928C12.2519 15.0363 13.4211 16.1911 14.8825 16.1911C16.3196 16.1911 17.4888 15.0363 17.4888 13.5928V1.58783C19.3887 0.817976 21.4104 0.288697 23.5052 0.0240581V17.1775C23.5052 18.5969 24.6987 19.7758 26.1358 19.7758C27.5729 19.7758 28.7664 18.5969 28.7664 17.1775V0C30.8855 0.216523 32.9316 0.721743 34.8558 1.46754V13.5928C34.8558 15.0363 36.025 16.1911 37.4621 16.1911C38.9236 16.1911 40.0927 15.0363 40.0927 13.5928V4.33046C45.4271 8.22787 49.0077 14.3146 49.4705 21.2433H51.1755C51.9793 21.2433 52.637 21.8929 52.637 22.6868V24.9723C52.637 25.7662 51.9793 26.4158 51.1755 26.4158H1.46146C0.657657 26.4158 0 25.7662 0 24.9723V22.6868C0 21.8929 0.657657 21.2433 1.46146 21.2433Z" fill="#152849"/>
<path d="M89.6717 40.7426H81.6974L70.7852 25.5502V40.7426H64V6.52578H70.7852V18.2931L80.3683 6.52578H88.4475L76.1014 21.786L89.6717 40.7426Z" fill="#152849"/>
<path d="M116.568 28.7369L116.533 29.9238H95.5126C95.8274 31.7889 96.6668 33.2472 97.9958 34.2645C99.3598 35.2818 101.004 35.7905 102.997 35.7905C105.445 35.7905 107.579 34.9766 109.328 33.3489L114.854 35.8923C112.161 39.5886 108.209 41.4199 103.032 41.4199C99.0101 41.4199 95.6875 40.199 93.0643 37.7574C90.4412 35.2819 89.1122 32.1281 89.1122 28.2282C89.1122 24.3962 90.3713 21.2085 92.9244 18.6312C95.4776 16.054 98.6953 14.7653 102.647 14.7653C106.775 14.7653 110.097 16.054 112.685 18.5973C115.343 21.2424 116.637 24.5997 116.568 28.7369ZM109.922 24.871C109.468 23.4128 108.628 22.2598 107.299 21.412C106.04 20.5642 104.571 20.1573 102.962 20.1573C101.144 20.1573 99.5697 20.632 98.2057 21.6155C97.3313 22.2598 96.5269 23.311 95.7924 24.871H109.922Z" fill="#152849"/>
<path d="M144.687 28.7369V29.9238H123.632C123.982 31.7889 124.787 33.2472 126.151 34.2645C127.48 35.2818 129.159 35.7905 131.152 35.7905C133.6 35.7905 135.699 34.9766 137.448 33.3489L142.974 35.8923C140.281 39.5886 136.328 41.4199 131.152 41.4199C127.13 41.4199 123.807 40.199 121.184 37.7574C118.561 35.2819 117.267 32.1281 117.267 28.2282C117.267 24.3962 118.526 21.2085 121.079 18.6312C123.597 16.054 126.85 14.7653 130.802 14.7653C134.894 14.7653 138.252 16.054 140.84 18.5973C143.498 21.2424 144.792 24.5997 144.687 28.7369ZM138.042 24.871C137.622 23.4128 136.748 22.2598 135.454 21.412C134.16 20.5642 132.726 20.1573 131.117 20.1573C129.298 20.1573 127.69 20.632 126.326 21.6155C125.486 22.2598 124.682 23.311 123.947 24.871H138.042Z" fill="#152849"/>
<path d="M173.682 28.1265C173.682 31.6872 172.528 34.7732 170.254 37.3844C167.841 40.0634 164.833 41.4199 161.231 41.4199C158.258 41.4199 155.565 40.3008 153.151 38.0965V49.9995H146.611V15.4435H153.151V18.1904C155.53 15.9183 158.258 14.7653 161.405 14.7653C165.078 14.7653 168.086 16.1218 170.394 18.8347C172.562 21.412 173.682 24.498 173.682 28.1265ZM167.141 28.0587C167.141 25.9901 166.477 24.2606 165.218 22.8702C163.889 21.412 162.175 20.6659 160.041 20.6659C157.873 20.6659 156.124 21.3781 154.795 22.8024C153.501 24.1927 152.872 25.9222 152.872 28.0587C152.872 30.1951 153.501 31.9585 154.76 33.3489C156.089 34.841 157.873 35.5531 160.041 35.5531C162.14 35.5531 163.854 34.8071 165.218 33.315C166.477 31.8907 167.141 30.1612 167.141 28.0587Z" fill="#152849"/>
<path d="M185.923 10.765C184.979 10.5276 184.209 10.392 183.615 10.392C182.845 10.392 182.286 10.5276 182.006 10.7989C181.726 11.0702 181.551 11.5449 181.551 12.291V15.4448L189.98 15.444L196.765 31.3147L204.25 15.444H211L194.667 50H187.882L193.233 38.877L185.546 20.8706H181.551V40.7429H174.941V20.8706H172.632V15.4448H174.941C174.976 12.2232 175.011 10.2563 175.116 9.54416C175.535 6.52602 177.599 5 181.306 5C182.67 5 184.209 5.3052 185.923 5.8817V10.765Z" fill="#152849"/>
</svg>
