<svg width="37" height="36" viewBox="0 0 37 36" fill="none" xmlns="http://www.w3.org/2000/svg">
<path d="M18.7866 36C28.7277 36 36.7866 27.9411 36.7866 18C36.7866 8.05887 28.7277 0 18.7866 0C8.8455 0 0.786621 8.05887 0.786621 18C0.786621 27.9411 8.8455 36 18.7866 36Z" fill="#BDBDBD"/>
<path d="M14.2866 27.375C14.2866 26.7537 14.7903 26.25 15.4116 26.25H22.1616C22.7829 26.25 23.2866 26.7537 23.2866 27.375C23.2866 27.9963 22.7829 28.5 22.1616 28.5H15.4116C14.7903 28.5 14.2866 27.9963 14.2866 27.375Z" fill="#757575"/>
<path d="M14.2866 30.375C14.2866 29.7537 14.7903 29.25 15.4116 29.25H22.1616C22.7829 29.25 23.2866 29.7537 23.2866 30.375C23.2866 30.9963 22.7829 31.5 22.1616 31.5H15.4116C14.7903 31.5 14.2866 30.9963 14.2866 30.375Z" fill="#757575"/>
<path d="M9.78662 13.5C9.78662 8.52944 13.8161 4.5 18.7866 4.5C23.7572 4.5 27.7866 8.52944 27.7866 13.5C27.7866 16.8312 25.9767 19.7399 23.2866 21.2959V24C23.2866 24.8284 22.6151 25.5 21.7866 25.5H15.7866C14.9582 25.5 14.2866 24.8284 14.2866 24V21.2959C11.5965 19.7399 9.78662 16.8312 9.78662 13.5Z" fill="#757575"/>
</svg>
