<svg width="36" height="36" viewBox="0 0 36 36" fill="none" xmlns="http://www.w3.org/2000/svg">
<path d="M15 9H7.5C6.70435 9 5.94129 9.31607 5.37868 9.87868C4.81607 10.4413 4.5 11.2044 4.5 12V25.5C4.5 26.2956 4.81607 27.0587 5.37868 27.6213C5.94129 28.1839 6.70435 28.5 7.5 28.5H28.5C29.2956 28.5 30.0587 28.1839 30.6213 27.6213C31.1839 27.0587 31.5 26.2956 31.5 25.5V12C31.5 11.2044 31.1839 10.4413 30.6213 9.87868C30.0587 9.31607 29.2956 9 28.5 9H21M15 9V7.5C15 6.70435 15.3161 5.94129 15.8787 5.37868C16.4413 4.81607 17.2044 4.5 18 4.5C18.7956 4.5 19.5587 4.81607 20.1213 5.37868C20.6839 5.94129 21 6.70435 21 7.5V9M15 9C15 9.79565 15.3161 10.5587 15.8787 11.1213C16.4413 11.6839 17.2044 12 18 12C18.7956 12 19.5587 11.6839 20.1213 11.1213C20.6839 10.5587 21 9.79565 21 9M13.5 21C15.459 21 17.1255 22.2525 17.745 24M13.5 21C12.5691 20.9997 11.661 21.2881 10.9007 21.8254C10.1405 22.3626 9.56552 23.1224 9.255 24M22.5 16.5H27M22.5 22.5H25.5M13.5 21C14.2956 21 15.0587 20.6839 15.6213 20.1213C16.1839 19.5587 16.5 18.7956 16.5 18C16.5 17.2044 16.1839 16.4413 15.6213 15.8787C15.0587 15.3161 14.2956 15 13.5 15C12.7044 15 11.9413 15.3161 11.3787 15.8787C10.8161 16.4413 10.5 17.2044 10.5 18C10.5 18.7956 10.8161 19.5587 11.3787 20.1213C11.9413 20.6839 12.7044 21 13.5 21Z" stroke="black" stroke-width="1.5"/>
</svg>
