<svg width="37" height="36" viewBox="0 0 37 36" fill="none" xmlns="http://www.w3.org/2000/svg">
<path d="M18.7866 36C28.7277 36 36.7866 27.9411 36.7866 18C36.7866 8.05887 28.7277 0 18.7866 0C8.8455 0 0.786621 8.05887 0.786621 18C0.786621 27.9411 8.8455 36 18.7866 36Z" fill="#D84315"/>
<path d="M18.7866 7.5C24.5856 7.5 29.2866 12.201 29.2866 18V28.7121C32.0637 25.9897 33.7866 22.1961 33.7866 18C33.7866 9.71572 27.0708 3 18.7866 3C10.5023 3 3.78662 9.71572 3.78662 18C3.78662 26.2842 10.5023 33 18.7866 33C19.814 33 20.8173 32.8966 21.7866 32.7V28.0652C20.8361 28.3481 19.8291 28.5 18.7866 28.5C12.9876 28.5 8.28662 23.799 8.28662 18C8.28662 12.201 12.9876 7.5 18.7866 7.5Z" fill="#8A2506"/>
<path d="M27.2091 25.3205H23.9243L23.4671 18H27.7866L27.2091 25.3205ZM23.2866 28.3489C23.2866 27.867 23.4992 27.4729 23.9243 27.1669C24.3575 26.8542 24.8949 26.6979 25.5366 26.6979C26.1783 26.6979 26.7117 26.8542 27.1368 27.1669C27.57 27.4729 27.7866 27.867 27.7866 28.3489C27.7866 28.8309 27.57 29.2282 27.1368 29.5408C26.7117 29.847 26.1783 30 25.5366 30C24.8949 30 24.3575 29.847 23.9243 29.5408C23.4992 29.2282 23.2866 28.8309 23.2866 28.3489Z" fill="#8A2506"/>
<path d="M17.2866 11.25C17.2866 10.0074 18.294 9 19.5366 9C20.7792 9 21.7866 10.0074 21.7866 11.25V18.75C21.7866 19.9926 20.7792 21 19.5366 21H12.0366C10.794 21 9.78662 19.9926 9.78662 18.75C9.78662 17.5074 10.794 16.5 12.0366 16.5H17.2866V11.25Z" fill="#8A2506"/>
</svg>
