<svg width="40" height="42" viewBox="0 0 40 42" fill="none" xmlns="http://www.w3.org/2000/svg">
<path d="M17.2814 39.0564C13.9742 39.0564 11.2385 36.5583 10.8631 33.3502H12.6876C12.9931 33.3502 13.2691 33.1664 13.3864 32.8835C13.5036 32.6007 13.4385 32.2755 13.2223 32.0592L8.62855 27.4655C8.33291 27.1698 7.85484 27.1698 7.55919 27.4655L2.96544 32.0592C2.74921 32.2755 2.68413 32.6007 2.80137 32.8835C2.91861 33.1664 3.19465 33.3502 3.50012 33.3502H5.4049C5.78659 37.3939 9.20141 40.5689 13.3439 40.5689H17.2814C17.6988 40.5689 18.0376 40.2309 18.0376 39.8127C18.0376 39.3945 17.6988 39.0564 17.2814 39.0564ZM6.88137 32.5939C6.88137 32.1757 6.54254 31.8377 6.12512 31.8377H5.32573L8.09387 29.0695L10.862 31.8377H10.0626C9.64521 31.8377 9.30637 32.1757 9.30637 32.5939C9.30637 35.22 10.5824 37.5537 12.5463 39.0077C9.35786 38.6133 6.88137 35.8875 6.88137 32.5939Z" fill="#152849" stroke="#152849" stroke-width="0.2"/>
<g clip-path="url(#clip0_210_81)">
<path d="M6.19812 14.8551C6.42884 13.8214 6.91522 12.8703 7.63856 11.9399C7.51385 11.9503 7.43902 11.9503 7.37043 11.9606C6.37895 12.1519 5.43736 12.4361 4.55813 12.8755C2.54401 13.8782 1.19086 15.31 0.716951 17.2121C0.373989 18.587 0.19939 21.8588 0.0185547 23.2596H24.3814C24.2317 22.2361 24.1569 19.2383 24.0135 18.2148C23.8202 16.8038 23.2402 15.5322 22.1365 14.4365C21.2323 13.5371 20.1162 12.8652 18.8191 12.4103C18.3203 12.2346 17.784 12.126 17.2665 11.9865C17.4909 12.3586 17.7653 12.6532 17.9649 12.9789C18.1706 13.3148 18.3203 13.6715 18.4512 14.0333C18.5136 14.2039 18.5822 14.2969 18.7942 14.3693C19.5737 14.6329 20.0102 15.3307 19.848 16.0078C19.6921 16.6745 18.9626 17.1656 18.1332 17.1707C17.3101 17.1759 16.5743 16.6952 16.3872 16.0336C16.1939 15.3513 16.6055 14.6794 17.3974 14.3796C17.466 14.3538 17.5408 14.3227 17.6094 14.2917C17.4099 13.4854 16.8736 12.8703 16.1877 12.3069C16.0879 12.4 16.0131 12.462 15.9383 12.5344C15.1339 13.3045 14.3419 14.0746 13.5375 14.8396C12.7768 15.5684 11.7042 15.5684 10.9372 14.8345C10.2326 14.1573 9.53421 13.4751 8.82958 12.798C8.69863 12.6739 8.55521 12.555 8.41802 12.431C7.70092 13.1081 6.94016 14.9172 7.03993 15.7028L7.04007 15.7028C7.09615 15.7183 7.15223 15.7338 7.21453 15.7493C8.63003 16.0543 9.54044 16.9743 9.59656 18.1838C9.62151 18.7679 9.60904 19.352 9.6028 19.936C9.6028 20.2255 9.43444 20.365 9.08524 20.3702C8.65498 20.3806 8.23095 20.3754 7.80692 20.3702C7.45773 20.365 7.25195 20.2203 7.24571 19.9929C7.23948 19.7603 7.45149 19.6052 7.81316 19.6001C8.1 19.5949 8.38684 19.6001 8.69863 19.6001C8.69863 19.1194 8.7111 18.6749 8.69863 18.2303C8.67368 17.2793 7.78822 16.4988 6.65956 16.4316C5.52466 16.3644 4.4833 17.0105 4.33365 17.9564C4.25258 18.4888 4.32118 19.0315 4.32118 19.6001C4.62049 19.6001 4.9198 19.5949 5.21911 19.6001C5.54337 19.6104 5.74291 19.7603 5.74915 19.9774C5.75538 20.2048 5.54961 20.365 5.21288 20.3702C4.78262 20.3754 4.35859 20.3754 3.93456 20.3702C3.56666 20.365 3.39206 20.2255 3.39206 19.9257C3.38582 19.3158 3.36712 18.7059 3.41077 18.096C3.47936 17.0932 4.10916 16.3748 5.18794 15.9302C5.46854 15.8165 5.8801 15.8062 6.04223 15.6304C6.21059 15.4444 6.142 15.1187 6.19812 14.8551Z" fill="#152849"/>
<path d="M18.2706 6.14028C18.2145 7.75294 17.5285 9.38627 15.82 10.6526C13.6063 12.2963 10.4261 12.1774 8.35584 10.3735C6.64103 8.87973 6.06111 7.06549 6.33548 5.04967C6.51631 3.70578 7.13988 2.5118 8.25607 1.51422C10.6506 -0.625651 14.4294 -0.486094 16.6057 1.81918C17.6969 2.98215 18.2643 4.36739 18.2706 6.14028Z" fill="#152849"/>
<path d="M18.1201 16.4008C17.64 16.406 17.2471 16.0856 17.2471 15.6876C17.2409 15.2896 17.6275 14.9691 18.1077 14.9639C18.5878 14.9588 18.9807 15.2741 18.9807 15.6721C18.9869 16.07 18.6003 16.3957 18.1201 16.4008Z" fill="#152849"/>
<path d="M16.4993 21.0216C16.4993 21.3369 16.4931 21.616 16.4993 21.9003C16.5055 22.1174 16.3995 22.2207 16.1314 22.2104C15.8633 22.2052 15.5951 22.2052 15.3208 22.2104C15.0651 22.2156 14.9653 22.1174 14.9653 21.9106C14.9716 21.6212 14.9653 21.3317 14.9653 21.0216C14.5912 21.0216 14.2482 21.0164 13.9115 21.0216C13.6434 21.0268 13.5311 20.9337 13.5374 20.7166C13.5436 20.4944 13.5436 20.2721 13.5374 20.0447C13.5311 19.8379 13.6558 19.7501 13.899 19.7501C14.242 19.7552 14.5787 19.7501 14.9716 19.7501C14.9716 19.4554 14.9778 19.1763 14.9716 18.8972C14.9591 18.6543 15.0776 18.5509 15.3769 18.5612C15.6014 18.5716 15.8321 18.5612 16.0628 18.5612C16.4494 18.5664 16.4993 18.6078 16.4993 18.9127C16.4993 19.1712 16.4993 19.4244 16.4993 19.7191C16.8547 19.7191 17.1915 19.7294 17.5282 19.7191C17.8213 19.7087 17.946 19.8069 17.9335 20.055C17.921 20.2669 17.921 20.484 17.9335 20.7011C17.946 20.9389 17.815 21.0268 17.5407 21.0164C17.2102 21.0112 16.8797 21.0216 16.4993 21.0216Z" fill="white"/>
</g>
<g clip-path="url(#clip1_210_81)">
<path d="M23.6884 33.7331C23.8861 32.847 24.303 32.0318 24.923 31.2344C24.8161 31.2432 24.752 31.2432 24.6932 31.2521C23.8434 31.416 23.0363 31.6597 22.2827 32.0363C20.5563 32.8958 19.3964 34.123 18.9902 35.7534C18.6963 36.9318 18.5466 39.7363 18.3916 40.9369H39.274C39.1457 40.0597 39.0816 37.4901 38.9587 36.6129C38.793 35.4034 38.2959 34.3135 37.3499 33.3742C36.5749 32.6034 35.6181 32.0274 34.5064 31.6375C34.0788 31.4869 33.6191 31.3939 33.1755 31.2742C33.3679 31.5932 33.6031 31.8458 33.7741 32.1249C33.9505 32.4129 34.0788 32.7186 34.191 33.0287C34.2445 33.1749 34.3033 33.2546 34.485 33.3167C35.1531 33.5426 35.5273 34.1407 35.3883 34.7211C35.2547 35.2926 34.6293 35.7135 33.9185 35.7179C33.2129 35.7223 32.5822 35.3103 32.4219 34.7432C32.2562 34.1584 32.609 33.5825 33.2878 33.3255C33.3466 33.3034 33.4107 33.2768 33.4695 33.2502C33.2984 32.5591 32.8388 32.0318 32.2509 31.5489C32.1653 31.6287 32.1012 31.6818 32.0371 31.7439C31.3476 32.404 30.6688 33.0641 29.9793 33.7198C29.3272 34.3445 28.4079 34.3445 27.7505 33.7154C27.1465 33.135 26.5479 32.5502 25.9439 31.9698C25.8317 31.8635 25.7087 31.7616 25.5911 31.6553C24.9765 32.2356 24.3244 33.7863 24.4099 34.4597L24.4101 34.4597C24.4581 34.473 24.5062 34.4863 24.5596 34.4996C25.7729 34.761 26.5532 35.5496 26.6013 36.5863C26.6227 37.0869 26.612 37.5875 26.6067 38.0882C26.6067 38.3363 26.4624 38.4559 26.163 38.4603C25.7942 38.4692 25.4308 38.4648 25.0673 38.4603C24.768 38.4559 24.5917 38.3318 24.5863 38.1369C24.581 37.9375 24.7627 37.8046 25.0727 37.8002C25.3186 37.7958 25.5644 37.8002 25.8317 37.8002C25.8317 37.3882 25.8424 37.0072 25.8317 36.6261C25.8103 35.811 25.0513 35.142 24.0839 35.0844C23.1111 35.0268 22.2185 35.5806 22.0903 36.3913C22.0208 36.8477 22.0796 37.3129 22.0796 37.8002C22.3361 37.8002 22.5927 37.7958 22.8492 37.8002C23.1272 37.8091 23.2982 37.9375 23.3035 38.1236C23.3089 38.3186 23.1325 38.4559 22.8439 38.4603C22.4751 38.4648 22.1116 38.4648 21.7482 38.4603C21.4328 38.4559 21.2832 38.3363 21.2832 38.0793C21.2778 37.5565 21.2618 37.0337 21.2992 36.511C21.358 35.6515 21.8978 35.0356 22.8225 34.6546C23.063 34.5572 23.4158 34.5483 23.5547 34.3977C23.6991 34.2382 23.6403 33.9591 23.6884 33.7331Z" fill="#152849"/>
<path d="M34.0368 26.263C33.9886 27.6452 33.4007 29.0452 31.9362 30.1307C30.0388 31.5395 27.3129 31.4376 25.5384 29.8914C24.0686 28.6111 23.5715 27.056 23.8067 25.3281C23.9617 24.1762 24.4962 23.1528 25.4529 22.2978C27.5053 20.4636 30.7443 20.5832 32.6097 22.5592C33.545 23.556 34.0314 24.7433 34.0368 26.263Z" fill="#152849"/>
<path d="M33.9075 35.0579C33.496 35.0623 33.1592 34.7876 33.1592 34.4465C33.1539 34.1053 33.4853 33.8307 33.8968 33.8262C34.3084 33.8218 34.6451 34.092 34.6451 34.4332C34.6505 34.7743 34.3191 35.0534 33.9075 35.0579Z" fill="#152849"/>
<path d="M32.5175 39.0186C32.5175 39.2889 32.5122 39.5281 32.5175 39.7718C32.5229 39.9579 32.432 40.0465 32.2022 40.0376C31.9724 40.0332 31.7425 40.0332 31.5074 40.0376C31.2882 40.0421 31.2027 39.9579 31.2027 39.7807C31.208 39.5326 31.2027 39.2845 31.2027 39.0186C30.882 39.0186 30.588 39.0142 30.2994 39.0186C30.0696 39.0231 29.9734 38.9433 29.9787 38.7572C29.9841 38.5667 29.9841 38.3762 29.9787 38.1813C29.9734 38.0041 30.0803 37.9288 30.2887 37.9288C30.5827 37.9332 30.8713 37.9288 31.208 37.9288C31.208 37.6762 31.2134 37.437 31.208 37.1978C31.1974 36.9895 31.2989 36.9009 31.5555 36.9098C31.7479 36.9186 31.9456 36.9098 32.1434 36.9098C32.4748 36.9142 32.5175 36.9497 32.5175 37.211C32.5175 37.4326 32.5175 37.6497 32.5175 37.9022C32.8222 37.9022 33.1108 37.911 33.3994 37.9022C33.6507 37.8933 33.7576 37.9775 33.7469 38.1902C33.7362 38.3718 33.7362 38.5579 33.7469 38.744C33.7576 38.9478 33.6453 39.0231 33.4101 39.0142C33.1269 39.0098 32.8436 39.0186 32.5175 39.0186Z" fill="white"/>
</g>
<defs>
<clipPath id="clip0_210_81">
<rect width="24.5" height="24.5" fill="white"/>
</clipPath>
<clipPath id="clip1_210_81">
<rect width="21" height="21" fill="white" transform="translate(18.375 21)"/>
</clipPath>
</defs>
</svg>
