<svg width="555" height="555" viewBox="0 0 555 555" fill="none" xmlns="http://www.w3.org/2000/svg">
    <circle cx="277.5" cy="277.5" r="277.5" fill="#E7BF11" />
    <path
        d="M259.708 300.951V305.951H264.708H290.292H295.292V300.951V188.811V183.811H290.292H264.708H259.708V188.811V300.951ZM210.006 434.536L211.471 436H213.542H341.458H343.529L344.994 434.536L434.536 344.994L436 343.529V341.458V213.542V211.471L434.536 210.006L344.994 120.464L343.529 119H341.458H213.542H211.471L210.006 120.464L120.464 210.006L119 211.471V213.542V341.458V343.529L120.464 344.994L210.006 434.536ZM277.5 367.351C282.892 367.351 287.623 365.269 291.482 361.41C295.341 357.551 297.424 352.82 297.424 347.428C297.424 342.035 295.341 337.305 291.482 333.446C287.623 329.586 282.892 327.504 277.5 327.504C272.108 327.504 267.377 329.586 263.518 333.446C259.659 337.305 257.576 342.035 257.576 347.428C257.576 352.82 259.659 357.551 263.518 361.41C267.377 365.269 272.108 367.351 277.5 367.351ZM400.417 328.728L328.728 400.417H226.272L154.583 328.728V226.272L226.272 154.583H328.728L400.417 226.272V328.728Z"
        fill="#83471E" stroke="#83471E" stroke-width="10" />
</svg>