<svg width="321" height="321" viewBox="0 0 321 321" fill="none" xmlns="http://www.w3.org/2000/svg">
<path d="M267.982 218.095L175.799 38.0606C172.201 31.0313 166.806 27 160.998 27C155.192 27 149.797 31.0313 146.2 38.0606L54.0177 218.095C50.4191 225.123 50.0196 232.408 52.9234 238.078C55.8271 243.748 61.6195 247 68.8168 247H253.182C260.38 247 266.173 243.748 269.077 238.076C271.98 232.406 271.581 225.123 267.982 218.095ZM161 223.644C151.734 223.644 144.197 215.145 144.197 204.698C144.197 194.25 151.734 185.752 161 185.752C170.265 185.752 177.803 194.25 177.803 204.698C177.803 215.145 170.265 223.644 161 223.644ZM172.312 157.952C172.312 168.399 170.265 176.933 161 176.933C151.734 176.933 149.395 168.399 149.395 157.952L144.197 94.1488C144.197 83.7014 151.734 75.2017 161 75.2017C170.265 75.2017 177.803 83.7014 177.803 94.1488L172.312 157.952Z" fill="#152849"/>
<circle cx="160.5" cy="160.5" r="153" stroke="#152849" stroke-width="15"/>
</svg>
