<svg width="37" height="37" viewBox="0 0 37 37" fill="none" xmlns="http://www.w3.org/2000/svg">
<g clip-path="url(#clip0_923_162)">
<path d="M18.5 36.5C28.4411 36.5 36.5 28.4411 36.5 18.5C36.5 8.55887 28.4411 0.5 18.5 0.5C8.55887 0.5 0.5 8.55887 0.5 18.5C0.5 28.4411 8.55887 36.5 18.5 36.5Z" fill="#FFB950"/>
<path d="M15.3135 14.2521C15.6064 14.545 15.6064 15.0199 15.3135 15.3128C15.0206 15.6057 14.5458 15.6057 14.2529 15.3128L7.93329 8.99322C7.6404 8.70033 7.6404 8.22546 7.93329 7.93256C8.22618 7.63967 8.70105 7.63967 8.99394 7.93256L15.3135 14.2521Z" fill="#985D04"/>
<path d="M31.625 17C32.6606 17 33.5 17.8394 33.5 18.875C33.5 19.9106 32.6606 20.75 31.625 20.75H24.875C23.8394 20.75 23 19.9106 23 18.875C23 17.8394 23.8394 17 24.875 17H31.625Z" fill="#985D04"/>
<path d="M26.2445 8.2054C27.123 7.32672 28.5477 7.32672 29.4264 8.2054C30.3051 9.08409 30.3051 10.5087 29.4264 11.3874L25.1559 15.6579C24.2772 16.5366 22.8525 16.5365 21.974 15.6579C21.0953 14.7792 21.0953 13.3546 21.974 12.4759L26.2445 8.2054Z" fill="#985D04"/>
<path d="M29.0908 26.6172C29.7742 27.3006 29.7742 28.4087 29.0908 29.0921C28.4074 29.7755 27.2994 29.7755 26.616 29.0921L21.6817 24.1578C20.9983 23.4744 20.9983 22.3664 21.6817 21.683C22.3651 20.9996 23.4732 20.9996 24.1566 21.683L29.0908 26.6172Z" fill="#985D04"/>
<path d="M17 24.65C17 23.7388 17.7388 23 18.65 23C19.5613 23 20.3 23.7388 20.3 24.65V31.85C20.3 32.7612 19.5613 33.5 18.65 33.5C17.7388 33.5 17 32.7612 17 31.85V24.65Z" fill="#985D04"/>
<path d="M12.8564 21.3427C13.4663 20.7328 14.4552 20.7328 15.0651 21.3427C15.6751 21.9527 15.6751 22.9415 15.0651 23.5514L9.82167 28.795C9.21175 29.4049 8.22288 29.4049 7.61297 28.795C7.00304 28.1851 7.00304 27.1961 7.61297 26.5862L12.8564 21.3427Z" fill="#985D04"/>
<path d="M12.8 17C13.4627 17 14 17.5373 14 18.2C14 18.8627 13.4627 19.4 12.8 19.4H4.7C4.03725 19.4 3.5 18.8627 3.5 18.2C3.5 17.5373 4.03725 17 4.7 17H12.8Z" fill="#985D04"/>
<path d="M16.25 5.75C16.25 4.50735 17.2574 3.5 18.5 3.5C19.7426 3.5 20.75 4.50735 20.75 5.75V11.75C20.75 12.9926 19.7426 14 18.5 14C17.2574 14 16.25 12.9926 16.25 11.75V5.75Z" fill="#985D04"/>
</g>
<defs>
<clipPath id="clip0_923_162">
<rect width="36" height="36" fill="white" transform="translate(0.5 0.5)"/>
</clipPath>
</defs>
</svg>
