<svg width="14" height="20" viewBox="0 0 14 20" fill="none" xmlns="http://www.w3.org/2000/svg">
  <rect width="13.107" height="17.8771" transform="matrix(-1 0 0 1 13.1072 1.32288)" fill="#323232"/>
  <rect width="6.09219" height="1.92402" transform="matrix(-1 0 0 1 9.61963 0)" fill="#323232"/>
  <rect width="0.9625" height="2.16465" transform="matrix(-1 0 0 1 11.7844 5.20923)" fill="white"/>
  <rect width="0.961719" height="2.16445" transform="matrix(-1 0 0 1 7.65552 5.20935)" fill="white"/>
  <rect width="0.9625" height="2.16445" transform="matrix(-1 0 0 1 3.52734 5.20935)" fill="white"/>
  <rect width="0.9625" height="2.16445" transform="matrix(-1 0 0 1 10.582 5.20935)" fill="white"/>
  <rect width="0.961719" height="2.16445" transform="matrix(-1 0 0 1 6.45312 5.20935)" fill="white"/>
  <rect width="0.9625" height="2.16445" transform="matrix(-1 0 0 1 2.32495 5.20935)" fill="white"/>
  <rect width="0.961719" height="2.16465" transform="matrix(-1 0 0 1 11.7039 9.93909)" fill="white"/>
  <rect width="0.9625" height="2.16445" transform="matrix(-1 0 0 1 7.57581 9.93921)" fill="white"/>
  <rect width="0.961719" height="2.16445" transform="matrix(-1 0 0 1 3.4469 9.93921)" fill="white"/>
  <rect width="0.961719" height="2.16445" transform="matrix(-1 0 0 1 10.5016 9.93921)" fill="white"/>
  <rect width="0.961719" height="2.16445" transform="matrix(-1 0 0 1 6.37268 9.93921)" fill="white"/>
  <rect width="2.24531" height="3.08652" transform="matrix(-1 0 0 1 7.69604 16.9136)" fill="white"/>
  <rect width="0.961719" height="2.16445" transform="matrix(-1 0 0 1 2.24451 9.93921)" fill="white"/>
  <rect width="0.9625" height="2.16445" transform="matrix(-1 0 0 1 11.7445 14.549)" fill="white"/>
  <rect width="0.961719" height="2.16465" transform="matrix(-1 0 0 1 3.48657 14.5486)" fill="white"/>
  <rect width="0.681445" height="3.36719" transform="matrix(0 -1 -1 0 8.29675 16.7133)" fill="white"/>
  <rect width="0.961719" height="2.16465" transform="matrix(-1 0 0 1 10.5413 14.5486)" fill="white"/>
  <rect width="0.961719" height="2.16465" transform="matrix(-1 0 0 1 2.2843 14.5486)" fill="white"/>
</svg>