<svg width="36" height="36" viewBox="0 0 36 36" fill="none" xmlns="http://www.w3.org/2000/svg">
<path d="M18 36C27.9411 36 36 27.9411 36 18C36 8.05887 27.9411 0 18 0C8.05887 0 0 8.05887 0 18C0 27.9411 8.05887 36 18 36Z" fill="#FFB950"/>
<path d="M18 28.5C23.799 28.5 28.5 23.799 28.5 18C28.5 12.201 23.799 7.5 18 7.5C12.201 7.5 7.5 12.201 7.5 18C7.5 23.799 12.201 28.5 18 28.5ZM18 33C26.2842 33 33 26.2842 33 18C33 9.71572 26.2842 3 18 3C9.71572 3 3 9.71572 3 18C3 26.2842 9.71572 33 18 33Z" fill="#985D04"/>
<circle cx="17.7866" cy="18" r="10.5" fill="#FFB950"/>
<path d="M21 11.25V18.75C21 19.9926 19.9926 21 18.75 21H11.25C10.0074 21 9 19.9926 9 18.75C9 17.5074 10.0074 16.5 11.25 16.5H16.5V11.25C16.5 10.0074 17.5074 9 18.75 9C19.9926 9 21 10.0074 21 11.25Z" fill="#985D04"/>
</svg>
