<svg width="15" height="15" viewBox="0 0 15 15" fill="none" xmlns="http://www.w3.org/2000/svg">
<path d="M0 1C0 0.447715 0.447715 0 1 0H14C14.5523 0 15 0.447715 15 1V14C15 14.5523 14.5523 15 14 15H1C0.447715 15 0 14.5523 0 14V1Z" fill="#152849"/>
<path fill-rule="evenodd" clip-rule="evenodd" d="M13.4391 5.03975C13.7622 5.8197 13.9284 6.65565 13.9284 7.49986H7.49986L1.07129 7.49986C1.07129 6.65565 1.23757 5.8197 1.56063 5.03975C1.8837 4.2598 2.35723 3.55112 2.95417 2.95417C3.55112 2.35723 4.2598 1.8837 5.03975 1.56064C5.8197 1.23757 6.65565 1.07129 7.49986 1.07129C8.34407 1.07129 9.18002 1.23757 9.95997 1.56063C10.7399 1.8837 11.4486 2.35723 12.0455 2.95417C12.6425 3.55112 13.116 4.2598 13.4391 5.03975ZM4.07637 2.857L3.57129 3.36208L5.33906 5.12985L5.84413 4.62477L4.07637 2.857ZM7.857 1.42843V3.92843H7.14272V1.42843H7.857ZM2.14272 6.07129V6.78557H4.64272V6.07129H2.14272ZM11.0533 2.85699L11.5584 3.36207L9.79065 5.12984L9.28558 4.62476L11.0533 2.85699ZM10.357 6.07129V6.78557H12.857V6.07129H10.357Z" fill="white"/>
<path d="M7.5 8.57129V14.9999" stroke="white"/>
</svg>
