<svg width="59" height="59" viewBox="0 0 59 59" fill="none" xmlns="http://www.w3.org/2000/svg">
<path d="M31.9585 4.91663H14.7502C13.4462 4.91663 12.1956 5.43463 11.2736 6.35668C10.3515 7.27874 9.8335 8.52931 9.8335 9.83329V49.1666C9.8335 50.4706 10.3515 51.7212 11.2736 52.6432C12.1956 53.5653 13.4462 54.0833 14.7502 54.0833H44.2502C45.5541 54.0833 46.8047 53.5653 47.7268 52.6432C48.6488 51.7212 49.1668 50.4706 49.1668 49.1666V22.125L31.9585 4.91663Z" stroke="#152849" stroke-linecap="round" stroke-linejoin="round"/>
<path d="M31.9585 4.91663V22.125H49.1668" fill="#152849"/>
<path d="M31.9585 4.91663V22.125H49.1668" stroke="#152849" stroke-width="0.4" stroke-linecap="round" stroke-linejoin="round"/>
<path d="M26.7148 37.0801V38H20.9375V37.0801H26.7148ZM26.5273 30.2891L21.207 38H20.5098V37.1562L25.8242 29.4688H26.5273V30.2891ZM26.0469 29.4688V30.3945H20.5859V29.4688H26.0469ZM29.3984 29.4688V38H28.2676V29.4688H29.3984ZM34.6016 34.6543H32.3223V33.7344H34.6016C35.043 33.7344 35.4004 33.6641 35.6738 33.5234C35.9473 33.3828 36.1465 33.1875 36.2715 32.9375C36.4004 32.6875 36.4648 32.4023 36.4648 32.082C36.4648 31.7891 36.4004 31.5137 36.2715 31.2559C36.1465 30.998 35.9473 30.791 35.6738 30.6348C35.4004 30.4746 35.043 30.3945 34.6016 30.3945H32.5859V38H31.4551V29.4688H34.6016C35.2461 29.4688 35.791 29.5801 36.2363 29.8027C36.6816 30.0254 37.0195 30.334 37.25 30.7285C37.4805 31.1191 37.5957 31.5664 37.5957 32.0703C37.5957 32.6172 37.4805 33.084 37.25 33.4707C37.0195 33.8574 36.6816 34.1523 36.2363 34.3555C35.791 34.5547 35.2461 34.6543 34.6016 34.6543Z" fill="black"/>
</svg>
