<svg width="1210" height="242" viewBox="0 0 1210 242" fill="none" xmlns="http://www.w3.org/2000/svg">
<rect width="556" height="174" transform="translate(16.9849 23)" fill="#0F7F14" fill-opacity="0.25"/>
<rect x="32.9849" y="23" width="30" height="174" fill="#0F7F14"/>
<rect x="70.9849" y="23" width="30" height="174" fill="#0F7F14"/>
<rect x="108.985" y="23" width="30" height="174" fill="#0F7F14"/>
<rect x="146.985" y="23" width="30" height="174" fill="#0F7F14"/>
<rect x="184.985" y="23" width="30" height="174" fill="#0F7F14"/>
<rect x="222.985" y="23" width="30" height="174" fill="#0F7F14"/>
<rect x="260.985" y="23" width="30" height="174" fill="#0F7F14"/>
<rect x="298.985" y="23" width="30" height="174" fill="#0F7F14"/>
<rect x="336.985" y="23" width="30" height="174" fill="#0F7F14"/>
<rect x="374.985" y="23" width="30" height="174" fill="#0F7F14"/>
<rect x="412.985" y="23" width="30" height="174" fill="#0F7F14"/>
<rect x="450.985" y="23" width="30" height="174" fill="#0F7F14"/>
<rect x="488.985" y="23" width="30" height="174" fill="#0F7F14"/>
<rect x="526.985" y="23" width="30" height="174" fill="#0F7F14"/>
<line x1="17.2739" y1="1.6898e-08" x2="17.2739" y2="242" stroke="#F90D0D"/>
<line x1="573.394" y1="1.6898e-08" x2="573.394" y2="242" stroke="#F90D0D"/>
<path d="M271.428 223H270.344V215.992C270.344 215.535 270.426 215.15 270.59 214.838C270.758 214.521 270.998 214.283 271.311 214.123C271.623 213.959 271.994 213.877 272.424 213.877C272.549 213.877 272.674 213.885 272.799 213.9C272.928 213.916 273.053 213.939 273.174 213.971L273.115 214.855C273.033 214.836 272.939 214.822 272.834 214.814C272.732 214.807 272.631 214.803 272.529 214.803C272.299 214.803 272.1 214.85 271.932 214.943C271.768 215.033 271.643 215.166 271.557 215.342C271.471 215.518 271.428 215.734 271.428 215.992V223ZM272.775 216.66V217.492H269.342V216.66H272.775ZM275.66 214V223H274.57V214H275.66ZM281.779 221.535V216.66H282.869V223H281.832L281.779 221.535ZM281.984 220.199L282.436 220.188C282.436 220.609 282.391 221 282.301 221.359C282.215 221.715 282.074 222.023 281.879 222.285C281.684 222.547 281.428 222.752 281.111 222.9C280.795 223.045 280.41 223.117 279.957 223.117C279.648 223.117 279.365 223.072 279.107 222.982C278.854 222.893 278.635 222.754 278.451 222.566C278.268 222.379 278.125 222.135 278.023 221.834C277.926 221.533 277.877 221.172 277.877 220.75V216.66H278.961V220.762C278.961 221.047 278.992 221.283 279.055 221.471C279.121 221.654 279.209 221.801 279.318 221.91C279.432 222.016 279.557 222.09 279.693 222.133C279.834 222.176 279.979 222.197 280.127 222.197C280.588 222.197 280.953 222.109 281.223 221.934C281.492 221.754 281.686 221.514 281.803 221.213C281.924 220.908 281.984 220.57 281.984 220.199ZM286.199 216.66V223H285.109V216.66H286.199ZM285.027 214.979C285.027 214.803 285.08 214.654 285.186 214.533C285.295 214.412 285.455 214.352 285.666 214.352C285.873 214.352 286.031 214.412 286.141 214.533C286.254 214.654 286.311 214.803 286.311 214.979C286.311 215.146 286.254 215.291 286.141 215.412C286.031 215.529 285.873 215.588 285.666 215.588C285.455 215.588 285.295 215.529 285.186 215.412C285.08 215.291 285.027 215.146 285.027 214.979ZM292.436 221.77V214H293.525V223H292.529L292.436 221.77ZM288.17 219.9V219.777C288.17 219.293 288.229 218.854 288.346 218.459C288.467 218.061 288.637 217.719 288.855 217.434C289.078 217.148 289.342 216.93 289.646 216.777C289.955 216.621 290.299 216.543 290.678 216.543C291.076 216.543 291.424 216.613 291.721 216.754C292.021 216.891 292.275 217.092 292.482 217.357C292.693 217.619 292.859 217.936 292.98 218.307C293.102 218.678 293.186 219.098 293.232 219.566V220.105C293.189 220.57 293.105 220.988 292.98 221.359C292.859 221.73 292.693 222.047 292.482 222.309C292.275 222.57 292.021 222.771 291.721 222.912C291.42 223.049 291.068 223.117 290.666 223.117C290.295 223.117 289.955 223.037 289.646 222.877C289.342 222.717 289.078 222.492 288.855 222.203C288.637 221.914 288.467 221.574 288.346 221.184C288.229 220.789 288.17 220.361 288.17 219.9ZM289.26 219.777V219.9C289.26 220.217 289.291 220.514 289.354 220.791C289.42 221.068 289.521 221.312 289.658 221.523C289.795 221.734 289.969 221.9 290.18 222.021C290.391 222.139 290.643 222.197 290.936 222.197C291.295 222.197 291.59 222.121 291.82 221.969C292.055 221.816 292.242 221.615 292.383 221.365C292.523 221.115 292.633 220.844 292.711 220.551V219.139C292.664 218.924 292.596 218.717 292.506 218.518C292.42 218.314 292.307 218.135 292.166 217.979C292.029 217.818 291.859 217.691 291.656 217.598C291.457 217.504 291.221 217.457 290.947 217.457C290.65 217.457 290.395 217.52 290.18 217.645C289.969 217.766 289.795 217.934 289.658 218.148C289.521 218.359 289.42 218.605 289.354 218.887C289.291 219.164 289.26 219.461 289.26 219.777ZM303.297 216.66H304.281V222.865C304.281 223.424 304.168 223.9 303.941 224.295C303.715 224.689 303.398 224.988 302.992 225.191C302.59 225.398 302.125 225.502 301.598 225.502C301.379 225.502 301.121 225.467 300.824 225.396C300.531 225.33 300.242 225.215 299.957 225.051C299.676 224.891 299.439 224.674 299.248 224.4L299.816 223.756C300.082 224.076 300.359 224.299 300.648 224.424C300.941 224.549 301.23 224.611 301.516 224.611C301.859 224.611 302.156 224.547 302.406 224.418C302.656 224.289 302.85 224.098 302.986 223.844C303.127 223.594 303.197 223.285 303.197 222.918V218.055L303.297 216.66ZM298.932 219.9V219.777C298.932 219.293 298.988 218.854 299.102 218.459C299.219 218.061 299.385 217.719 299.6 217.434C299.818 217.148 300.082 216.93 300.391 216.777C300.699 216.621 301.047 216.543 301.434 216.543C301.832 216.543 302.18 216.613 302.477 216.754C302.777 216.891 303.031 217.092 303.238 217.357C303.449 217.619 303.615 217.936 303.736 218.307C303.857 218.678 303.941 219.098 303.988 219.566V220.105C303.945 220.57 303.861 220.988 303.736 221.359C303.615 221.73 303.449 222.047 303.238 222.309C303.031 222.57 302.777 222.771 302.477 222.912C302.176 223.049 301.824 223.117 301.422 223.117C301.043 223.117 300.699 223.037 300.391 222.877C300.086 222.717 299.824 222.492 299.605 222.203C299.387 221.914 299.219 221.574 299.102 221.184C298.988 220.789 298.932 220.361 298.932 219.9ZM300.016 219.777V219.9C300.016 220.217 300.047 220.514 300.109 220.791C300.176 221.068 300.275 221.312 300.408 221.523C300.545 221.734 300.719 221.9 300.93 222.021C301.141 222.139 301.393 222.197 301.686 222.197C302.045 222.197 302.342 222.121 302.576 221.969C302.811 221.816 302.996 221.615 303.133 221.365C303.273 221.115 303.383 220.844 303.461 220.551V219.139C303.418 218.924 303.352 218.717 303.262 218.518C303.176 218.314 303.062 218.135 302.922 217.979C302.785 217.818 302.615 217.691 302.412 217.598C302.209 217.504 301.971 217.457 301.697 217.457C301.4 217.457 301.145 217.52 300.93 217.645C300.719 217.766 300.545 217.934 300.408 218.148C300.275 218.359 300.176 218.605 300.109 218.887C300.047 219.164 300.016 219.461 300.016 219.777ZM307.512 217.656V223H306.428V216.66H307.482L307.512 217.656ZM309.492 216.625L309.486 217.633C309.396 217.613 309.311 217.602 309.229 217.598C309.15 217.59 309.061 217.586 308.959 217.586C308.709 217.586 308.488 217.625 308.297 217.703C308.105 217.781 307.943 217.891 307.811 218.031C307.678 218.172 307.572 218.34 307.494 218.535C307.42 218.727 307.371 218.938 307.348 219.168L307.043 219.344C307.043 218.961 307.08 218.602 307.154 218.266C307.232 217.93 307.352 217.633 307.512 217.375C307.672 217.113 307.875 216.91 308.121 216.766C308.371 216.617 308.668 216.543 309.012 216.543C309.09 216.543 309.18 216.553 309.281 216.572C309.383 216.588 309.453 216.605 309.492 216.625ZM312.172 216.66V223H311.082V216.66H312.172ZM311 214.979C311 214.803 311.053 214.654 311.158 214.533C311.268 214.412 311.428 214.352 311.639 214.352C311.846 214.352 312.004 214.412 312.113 214.533C312.227 214.654 312.283 214.803 312.283 214.979C312.283 215.146 312.227 215.291 312.113 215.412C312.004 215.529 311.846 215.588 311.639 215.588C311.428 215.588 311.268 215.529 311.158 215.412C311.053 215.291 311 215.146 311 214.979ZM318.408 221.77V214H319.498V223H318.502L318.408 221.77ZM314.143 219.9V219.777C314.143 219.293 314.201 218.854 314.318 218.459C314.439 218.061 314.609 217.719 314.828 217.434C315.051 217.148 315.314 216.93 315.619 216.777C315.928 216.621 316.271 216.543 316.65 216.543C317.049 216.543 317.396 216.613 317.693 216.754C317.994 216.891 318.248 217.092 318.455 217.357C318.666 217.619 318.832 217.936 318.953 218.307C319.074 218.678 319.158 219.098 319.205 219.566V220.105C319.162 220.57 319.078 220.988 318.953 221.359C318.832 221.73 318.666 222.047 318.455 222.309C318.248 222.57 317.994 222.771 317.693 222.912C317.393 223.049 317.041 223.117 316.639 223.117C316.268 223.117 315.928 223.037 315.619 222.877C315.314 222.717 315.051 222.492 314.828 222.203C314.609 221.914 314.439 221.574 314.318 221.184C314.201 220.789 314.143 220.361 314.143 219.9ZM315.232 219.777V219.9C315.232 220.217 315.264 220.514 315.326 220.791C315.393 221.068 315.494 221.312 315.631 221.523C315.768 221.734 315.941 221.9 316.152 222.021C316.363 222.139 316.615 222.197 316.908 222.197C317.268 222.197 317.562 222.121 317.793 221.969C318.027 221.816 318.215 221.615 318.355 221.365C318.496 221.115 318.605 220.844 318.684 220.551V219.139C318.637 218.924 318.568 218.717 318.479 218.518C318.393 218.314 318.279 218.135 318.139 217.979C318.002 217.818 317.832 217.691 317.629 217.598C317.43 217.504 317.193 217.457 316.92 217.457C316.623 217.457 316.367 217.52 316.152 217.645C315.941 217.766 315.768 217.934 315.631 218.148C315.494 218.359 315.393 218.605 315.326 218.887C315.264 219.164 315.232 219.461 315.232 219.777Z" fill="#FF0000"/>
<path d="M564.353 219.354C564.548 219.158 564.548 218.842 564.353 218.646L561.171 215.464C560.976 215.269 560.659 215.269 560.464 215.464C560.269 215.66 560.269 215.976 560.464 216.172L563.292 219L560.464 221.828C560.269 222.024 560.269 222.34 560.464 222.536C560.659 222.731 560.976 222.731 561.171 222.536L564.353 219.354ZM329 219L329 219.5L563.999 219.5L563.999 219L563.999 218.5L329 218.5L329 219Z" fill="#FF0000"/>
<path d="M25.646 218.646C25.4507 218.842 25.4507 219.158 25.646 219.354L28.828 222.536C29.0232 222.731 29.3398 222.731 29.5351 222.536C29.7303 222.34 29.7303 222.024 29.5351 221.828L26.7066 219L29.5351 216.172C29.7303 215.976 29.7303 215.66 29.5351 215.464C29.3398 215.269 29.0232 215.269 28.828 215.464L25.646 218.646ZM261 219L261 218.5L25.9995 218.5L25.9995 219L25.9995 219.5L261 219.5L261 219Z" fill="#FF0000"/>
<rect width="556" height="174" transform="translate(636.985 23)" fill="#D84315" fill-opacity="0.25"/>
<rect x="690.985" y="23" width="30" height="174" fill="#D84315"/>
<rect x="728.985" y="23" width="30" height="174" fill="#D84315"/>
<rect x="766.985" y="23" width="30" height="174" fill="#D84315"/>
<rect x="804.985" y="23" width="30" height="174" fill="#D84315"/>
<rect x="842.985" y="23" width="30" height="174" fill="#D84315"/>
<rect x="880.985" y="23" width="30" height="174" fill="#D84315"/>
<rect x="918.985" y="23" width="30" height="174" fill="#D84315"/>
<rect x="956.985" y="23" width="30" height="174" fill="#D84315"/>
<rect x="994.985" y="23" width="30" height="174" fill="#D84315"/>
<rect x="1032.98" y="23" width="30" height="174" fill="#D84315"/>
<rect x="1070.98" y="23" width="30" height="174" fill="#D84315"/>
<rect x="1108.98" y="23" width="30" height="174" fill="#D84315"/>
<line x1="691.5" y1="1.45882e-08" x2="691.5" y2="242" stroke="#F90D0D"/>
<line x1="1139.5" y1="1.45882e-08" x2="1139.5" y2="242" stroke="#F90D0D"/>
<path d="M888.47 223H887.386V215.992C887.386 215.535 887.468 215.15 887.632 214.838C887.8 214.521 888.04 214.283 888.353 214.123C888.665 213.959 889.036 213.877 889.466 213.877C889.591 213.877 889.716 213.885 889.841 213.9C889.97 213.916 890.095 213.939 890.216 213.971L890.157 214.855C890.075 214.836 889.981 214.822 889.876 214.814C889.774 214.807 889.673 214.803 889.571 214.803C889.341 214.803 889.142 214.85 888.974 214.943C888.81 215.033 888.685 215.166 888.599 215.342C888.513 215.518 888.47 215.734 888.47 215.992V223ZM889.817 216.66V217.492H886.384V216.66H889.817ZM892.702 216.66V223H891.612V216.66H892.702ZM891.53 214.979C891.53 214.803 891.583 214.654 891.688 214.533C891.798 214.412 891.958 214.352 892.169 214.352C892.376 214.352 892.534 214.412 892.644 214.533C892.757 214.654 892.813 214.803 892.813 214.979C892.813 215.146 892.757 215.291 892.644 215.412C892.534 215.529 892.376 215.588 892.169 215.588C891.958 215.588 891.798 215.529 891.688 215.412C891.583 215.291 891.53 215.146 891.53 214.979ZM895.675 216.66L897.063 218.969L898.47 216.66H899.741L897.667 219.789L899.806 223H898.552L897.087 220.621L895.622 223H894.362L896.495 219.789L894.427 216.66H895.675ZM903.909 223.117C903.468 223.117 903.067 223.043 902.708 222.895C902.353 222.742 902.046 222.529 901.788 222.256C901.534 221.982 901.339 221.658 901.202 221.283C901.065 220.908 900.997 220.498 900.997 220.053V219.807C900.997 219.291 901.073 218.832 901.226 218.43C901.378 218.023 901.585 217.68 901.847 217.398C902.108 217.117 902.405 216.904 902.737 216.76C903.069 216.615 903.413 216.543 903.769 216.543C904.222 216.543 904.612 216.621 904.94 216.777C905.272 216.934 905.544 217.152 905.755 217.434C905.966 217.711 906.122 218.039 906.224 218.418C906.325 218.793 906.376 219.203 906.376 219.648V220.135H901.642V219.25H905.292V219.168C905.276 218.887 905.218 218.613 905.116 218.348C905.019 218.082 904.862 217.863 904.647 217.691C904.433 217.52 904.14 217.434 903.769 217.434C903.522 217.434 903.296 217.486 903.089 217.592C902.882 217.693 902.704 217.846 902.556 218.049C902.407 218.252 902.292 218.5 902.21 218.793C902.128 219.086 902.087 219.424 902.087 219.807V220.053C902.087 220.354 902.128 220.637 902.21 220.902C902.296 221.164 902.419 221.395 902.579 221.594C902.743 221.793 902.94 221.949 903.171 222.062C903.405 222.176 903.671 222.232 903.968 222.232C904.351 222.232 904.675 222.154 904.94 221.998C905.206 221.842 905.438 221.633 905.638 221.371L906.294 221.893C906.157 222.1 905.983 222.297 905.772 222.484C905.562 222.672 905.302 222.824 904.993 222.941C904.688 223.059 904.327 223.117 903.909 223.117ZM912.138 221.77V214H913.228V223H912.231L912.138 221.77ZM907.872 219.9V219.777C907.872 219.293 907.931 218.854 908.048 218.459C908.169 218.061 908.339 217.719 908.558 217.434C908.78 217.148 909.044 216.93 909.349 216.777C909.657 216.621 910.001 216.543 910.38 216.543C910.778 216.543 911.126 216.613 911.423 216.754C911.724 216.891 911.978 217.092 912.185 217.357C912.396 217.619 912.562 217.936 912.683 218.307C912.804 218.678 912.888 219.098 912.935 219.566V220.105C912.892 220.57 912.808 220.988 912.683 221.359C912.562 221.73 912.396 222.047 912.185 222.309C911.978 222.57 911.724 222.771 911.423 222.912C911.122 223.049 910.771 223.117 910.368 223.117C909.997 223.117 909.657 223.037 909.349 222.877C909.044 222.717 908.78 222.492 908.558 222.203C908.339 221.914 908.169 221.574 908.048 221.184C907.931 220.789 907.872 220.361 907.872 219.9ZM908.962 219.777V219.9C908.962 220.217 908.993 220.514 909.056 220.791C909.122 221.068 909.224 221.312 909.36 221.523C909.497 221.734 909.671 221.9 909.882 222.021C910.093 222.139 910.345 222.197 910.638 222.197C910.997 222.197 911.292 222.121 911.522 221.969C911.757 221.816 911.944 221.615 912.085 221.365C912.226 221.115 912.335 220.844 912.413 220.551V219.139C912.366 218.924 912.298 218.717 912.208 218.518C912.122 218.314 912.009 218.135 911.868 217.979C911.731 217.818 911.562 217.691 911.358 217.598C911.159 217.504 910.923 217.457 910.649 217.457C910.353 217.457 910.097 217.52 909.882 217.645C909.671 217.766 909.497 217.934 909.36 218.148C909.224 218.359 909.122 218.605 909.056 218.887C908.993 219.164 908.962 219.461 908.962 219.777ZM922.999 216.66H923.983V222.865C923.983 223.424 923.87 223.9 923.644 224.295C923.417 224.689 923.101 224.988 922.694 225.191C922.292 225.398 921.827 225.502 921.3 225.502C921.081 225.502 920.823 225.467 920.526 225.396C920.233 225.33 919.944 225.215 919.659 225.051C919.378 224.891 919.142 224.674 918.95 224.4L919.519 223.756C919.784 224.076 920.062 224.299 920.351 224.424C920.644 224.549 920.933 224.611 921.218 224.611C921.562 224.611 921.858 224.547 922.108 224.418C922.358 224.289 922.552 224.098 922.688 223.844C922.829 223.594 922.899 223.285 922.899 222.918V218.055L922.999 216.66ZM918.634 219.9V219.777C918.634 219.293 918.69 218.854 918.804 218.459C918.921 218.061 919.087 217.719 919.302 217.434C919.521 217.148 919.784 216.93 920.093 216.777C920.401 216.621 920.749 216.543 921.136 216.543C921.534 216.543 921.882 216.613 922.179 216.754C922.479 216.891 922.733 217.092 922.94 217.357C923.151 217.619 923.317 217.936 923.438 218.307C923.56 218.678 923.644 219.098 923.69 219.566V220.105C923.647 220.57 923.563 220.988 923.438 221.359C923.317 221.73 923.151 222.047 922.94 222.309C922.733 222.57 922.479 222.771 922.179 222.912C921.878 223.049 921.526 223.117 921.124 223.117C920.745 223.117 920.401 223.037 920.093 222.877C919.788 222.717 919.526 222.492 919.308 222.203C919.089 221.914 918.921 221.574 918.804 221.184C918.69 220.789 918.634 220.361 918.634 219.9ZM919.718 219.777V219.9C919.718 220.217 919.749 220.514 919.812 220.791C919.878 221.068 919.978 221.312 920.11 221.523C920.247 221.734 920.421 221.9 920.632 222.021C920.843 222.139 921.095 222.197 921.388 222.197C921.747 222.197 922.044 222.121 922.278 221.969C922.513 221.816 922.698 221.615 922.835 221.365C922.976 221.115 923.085 220.844 923.163 220.551V219.139C923.12 218.924 923.054 218.717 922.964 218.518C922.878 218.314 922.765 218.135 922.624 217.979C922.487 217.818 922.317 217.691 922.114 217.598C921.911 217.504 921.673 217.457 921.399 217.457C921.103 217.457 920.847 217.52 920.632 217.645C920.421 217.766 920.247 217.934 920.11 218.148C919.978 218.359 919.878 218.605 919.812 218.887C919.749 219.164 919.718 219.461 919.718 219.777ZM927.214 217.656V223H926.13V216.66H927.185L927.214 217.656ZM929.194 216.625L929.188 217.633C929.099 217.613 929.013 217.602 928.931 217.598C928.853 217.59 928.763 217.586 928.661 217.586C928.411 217.586 928.19 217.625 927.999 217.703C927.808 217.781 927.646 217.891 927.513 218.031C927.38 218.172 927.274 218.34 927.196 218.535C927.122 218.727 927.073 218.938 927.05 219.168L926.745 219.344C926.745 218.961 926.782 218.602 926.856 218.266C926.935 217.93 927.054 217.633 927.214 217.375C927.374 217.113 927.577 216.91 927.823 216.766C928.073 216.617 928.37 216.543 928.714 216.543C928.792 216.543 928.882 216.553 928.983 216.572C929.085 216.588 929.155 216.605 929.194 216.625ZM931.874 216.66V223H930.784V216.66H931.874ZM930.702 214.979C930.702 214.803 930.755 214.654 930.86 214.533C930.97 214.412 931.13 214.352 931.341 214.352C931.548 214.352 931.706 214.412 931.815 214.533C931.929 214.654 931.985 214.803 931.985 214.979C931.985 215.146 931.929 215.291 931.815 215.412C931.706 215.529 931.548 215.588 931.341 215.588C931.13 215.588 930.97 215.529 930.86 215.412C930.755 215.291 930.702 215.146 930.702 214.979ZM938.11 221.77V214H939.2V223H938.204L938.11 221.77ZM933.845 219.9V219.777C933.845 219.293 933.903 218.854 934.021 218.459C934.142 218.061 934.312 217.719 934.53 217.434C934.753 217.148 935.017 216.93 935.321 216.777C935.63 216.621 935.974 216.543 936.353 216.543C936.751 216.543 937.099 216.613 937.396 216.754C937.696 216.891 937.95 217.092 938.157 217.357C938.368 217.619 938.534 217.936 938.655 218.307C938.776 218.678 938.86 219.098 938.907 219.566V220.105C938.864 220.57 938.78 220.988 938.655 221.359C938.534 221.73 938.368 222.047 938.157 222.309C937.95 222.57 937.696 222.771 937.396 222.912C937.095 223.049 936.743 223.117 936.341 223.117C935.97 223.117 935.63 223.037 935.321 222.877C935.017 222.717 934.753 222.492 934.53 222.203C934.312 221.914 934.142 221.574 934.021 221.184C933.903 220.789 933.845 220.361 933.845 219.9ZM934.935 219.777V219.9C934.935 220.217 934.966 220.514 935.028 220.791C935.095 221.068 935.196 221.312 935.333 221.523C935.47 221.734 935.644 221.9 935.854 222.021C936.065 222.139 936.317 222.197 936.61 222.197C936.97 222.197 937.265 222.121 937.495 221.969C937.729 221.816 937.917 221.615 938.058 221.365C938.198 221.115 938.308 220.844 938.386 220.551V219.139C938.339 218.924 938.271 218.717 938.181 218.518C938.095 218.314 937.981 218.135 937.841 217.979C937.704 217.818 937.534 217.691 937.331 217.598C937.132 217.504 936.896 217.457 936.622 217.457C936.325 217.457 936.069 217.52 935.854 217.645C935.644 217.766 935.47 217.934 935.333 218.148C935.196 218.359 935.095 218.605 935.028 218.887C934.966 219.164 934.935 219.461 934.935 219.777Z" fill="#FF0000"/>
<path d="M1130.35 219.354C1130.55 219.158 1130.55 218.842 1130.35 218.646L1127.17 215.464C1126.98 215.269 1126.66 215.269 1126.46 215.464C1126.27 215.66 1126.27 215.976 1126.46 216.172L1129.29 219L1126.46 221.828C1126.27 222.024 1126.27 222.34 1126.46 222.536C1126.66 222.731 1126.98 222.731 1127.17 222.536L1130.35 219.354ZM954 219V219.5H1130V219V218.5H954V219Z" fill="#FF0000"/>
<path d="M697.646 218.646C697.451 218.842 697.451 219.158 697.646 219.354L700.828 222.536C701.024 222.731 701.34 222.731 701.536 222.536C701.731 222.34 701.731 222.024 701.536 221.828L698.707 219L701.536 216.172C701.731 215.976 701.731 215.66 701.536 215.464C701.34 215.269 701.024 215.269 700.828 215.464L697.646 218.646ZM874 219L874 218.5L698 218.5L698 219L698 219.5L874 219.5L874 219Z" fill="#FF0000"/>
</svg>
