<svg width="1210" height="261" viewBox="0 0 1210 261" fill="none" xmlns="http://www.w3.org/2000/svg">
<path d="M1176.59 197.293C1176.2 196.902 1175.56 196.902 1175.17 197.293L1168.81 203.657C1168.42 204.047 1168.42 204.681 1168.81 205.071C1169.2 205.462 1169.83 205.462 1170.22 205.071L1175.88 199.414L1181.54 205.071C1181.93 205.462 1182.56 205.462 1182.95 205.071C1183.34 204.681 1183.34 204.047 1182.95 203.657L1176.59 197.293ZM1175.88 233H1176.88V198H1175.88H1174.88V233H1175.88Z" fill="black"/>
<rect x="1142.38" y="237" width="67" height="24" rx="6" fill="#01579B" fill-opacity="0.2"/>
<path d="M1151.34 244.273H1152.94L1155.71 251.057H1155.82L1158.6 244.273H1160.19V253H1158.94V246.685H1158.86L1156.29 252.987H1155.25L1152.67 246.68H1152.59V253H1151.34V244.273ZM1163.91 253.145C1163.5 253.145 1163.12 253.068 1162.79 252.915C1162.45 252.759 1162.18 252.533 1161.99 252.237C1161.8 251.942 1161.7 251.58 1161.7 251.151C1161.7 250.781 1161.77 250.477 1161.91 250.239C1162.05 250 1162.25 249.811 1162.49 249.672C1162.73 249.533 1163 249.428 1163.3 249.357C1163.59 249.286 1163.9 249.232 1164.21 249.195C1164.6 249.149 1164.92 249.112 1165.16 249.084C1165.41 249.053 1165.59 249.003 1165.7 248.935C1165.81 248.866 1165.86 248.756 1165.86 248.602V248.572C1165.86 248.2 1165.76 247.912 1165.55 247.707C1165.34 247.503 1165.03 247.401 1164.62 247.401C1164.19 247.401 1163.85 247.496 1163.6 247.686C1163.36 247.874 1163.19 248.082 1163.1 248.312L1161.9 248.04C1162.04 247.642 1162.25 247.321 1162.52 247.077C1162.8 246.83 1163.11 246.651 1163.47 246.54C1163.83 246.426 1164.21 246.369 1164.6 246.369C1164.86 246.369 1165.14 246.401 1165.43 246.463C1165.73 246.523 1166 246.634 1166.26 246.795C1166.52 246.957 1166.73 247.189 1166.89 247.49C1167.06 247.788 1167.14 248.176 1167.14 248.653V253H1165.9V252.105H1165.84C1165.76 252.27 1165.64 252.432 1165.47 252.591C1165.31 252.75 1165.1 252.882 1164.84 252.987C1164.58 253.092 1164.27 253.145 1163.91 253.145ZM1164.19 252.122C1164.54 252.122 1164.84 252.053 1165.09 251.913C1165.34 251.774 1165.54 251.592 1165.67 251.368C1165.8 251.141 1165.87 250.898 1165.87 250.639V249.795C1165.82 249.841 1165.73 249.884 1165.6 249.923C1165.47 249.96 1165.33 249.993 1165.16 250.021C1165 250.047 1164.84 250.071 1164.68 250.094C1164.53 250.114 1164.39 250.131 1164.29 250.145C1164.04 250.176 1163.82 250.229 1163.61 250.303C1163.41 250.376 1163.25 250.483 1163.13 250.622C1163.01 250.759 1162.95 250.94 1162.95 251.168C1162.95 251.483 1163.06 251.722 1163.3 251.884C1163.53 252.043 1163.83 252.122 1164.19 252.122ZM1168.84 253V246.455H1170.07V247.494H1170.14C1170.26 247.142 1170.47 246.865 1170.77 246.663C1171.07 246.459 1171.42 246.357 1171.8 246.357C1171.88 246.357 1171.97 246.359 1172.08 246.365C1172.19 246.371 1172.28 246.378 1172.34 246.386V247.605C1172.29 247.591 1172.2 247.575 1172.07 247.558C1171.94 247.538 1171.81 247.528 1171.68 247.528C1171.37 247.528 1171.11 247.592 1170.87 247.72C1170.64 247.845 1170.45 248.02 1170.32 248.244C1170.18 248.466 1170.11 248.719 1170.11 249.003V253H1168.84ZM1175.95 255.591C1175.43 255.591 1174.99 255.523 1174.61 255.386C1174.24 255.25 1173.93 255.07 1173.7 254.845C1173.46 254.621 1173.29 254.375 1173.17 254.108L1174.27 253.656C1174.34 253.781 1174.44 253.913 1174.57 254.053C1174.7 254.195 1174.88 254.315 1175.1 254.415C1175.33 254.514 1175.61 254.564 1175.97 254.564C1176.45 254.564 1176.85 254.446 1177.16 254.21C1177.48 253.977 1177.64 253.605 1177.64 253.094V251.807H1177.56C1177.48 251.946 1177.37 252.101 1177.22 252.271C1177.08 252.442 1176.88 252.589 1176.63 252.714C1176.38 252.839 1176.06 252.902 1175.66 252.902C1175.14 252.902 1174.68 252.781 1174.26 252.54C1173.85 252.295 1173.52 251.936 1173.28 251.462C1173.04 250.984 1172.92 250.398 1172.92 249.702C1172.92 249.006 1173.04 248.409 1173.28 247.912C1173.52 247.415 1173.84 247.034 1174.26 246.77C1174.67 246.503 1175.14 246.369 1175.67 246.369C1176.07 246.369 1176.4 246.438 1176.65 246.574C1176.9 246.707 1177.1 246.864 1177.24 247.043C1177.38 247.222 1177.49 247.379 1177.56 247.516H1177.66V246.455H1178.91V253.145C1178.91 253.707 1178.78 254.169 1178.51 254.53C1178.25 254.891 1177.9 255.158 1177.45 255.331C1177.01 255.504 1176.51 255.591 1175.95 255.591ZM1175.94 251.845C1176.31 251.845 1176.62 251.76 1176.87 251.589C1177.12 251.416 1177.32 251.169 1177.45 250.848C1177.58 250.524 1177.65 250.136 1177.65 249.685C1177.65 249.244 1177.58 248.857 1177.45 248.521C1177.32 248.186 1177.13 247.925 1176.88 247.737C1176.62 247.547 1176.31 247.452 1175.94 247.452C1175.56 247.452 1175.24 247.551 1174.98 247.75C1174.73 247.946 1174.53 248.213 1174.4 248.551C1174.27 248.889 1174.21 249.267 1174.21 249.685C1174.21 250.114 1174.28 250.49 1174.41 250.814C1174.54 251.138 1174.73 251.391 1174.99 251.572C1175.24 251.754 1175.56 251.845 1175.94 251.845ZM1183.44 253.132C1182.79 253.132 1182.24 252.994 1181.77 252.719C1181.31 252.44 1180.95 252.05 1180.7 251.547C1180.45 251.041 1180.32 250.449 1180.32 249.77C1180.32 249.099 1180.45 248.509 1180.7 247.997C1180.95 247.486 1181.3 247.087 1181.75 246.8C1182.21 246.513 1182.74 246.369 1183.35 246.369C1183.72 246.369 1184.07 246.43 1184.42 246.553C1184.77 246.675 1185.08 246.866 1185.35 247.128C1185.63 247.389 1185.85 247.729 1186.01 248.146C1186.16 248.561 1186.24 249.065 1186.24 249.659V250.111H1181.04V249.156H1185C1185 248.821 1184.93 248.524 1184.79 248.266C1184.65 248.004 1184.46 247.798 1184.22 247.648C1183.97 247.497 1183.68 247.422 1183.35 247.422C1183 247.422 1182.68 247.51 1182.42 247.686C1182.15 247.859 1181.95 248.087 1181.8 248.368C1181.66 248.646 1181.59 248.949 1181.59 249.276V250.021C1181.59 250.459 1181.67 250.831 1181.82 251.138C1181.98 251.445 1182.19 251.679 1182.47 251.841C1182.75 252 1183.08 252.08 1183.45 252.08C1183.69 252.08 1183.91 252.045 1184.11 251.977C1184.31 251.906 1184.48 251.801 1184.62 251.662C1184.77 251.523 1184.88 251.351 1184.96 251.146L1186.16 251.364C1186.07 251.719 1185.89 252.03 1185.64 252.297C1185.4 252.561 1185.09 252.767 1184.71 252.915C1184.34 253.06 1183.91 253.132 1183.44 253.132ZM1188.93 249.114V253H1187.66V246.455H1188.88V247.52H1188.96C1189.11 247.173 1189.35 246.895 1189.67 246.685C1189.99 246.474 1190.4 246.369 1190.89 246.369C1191.34 246.369 1191.73 246.463 1192.06 246.651C1192.4 246.835 1192.66 247.111 1192.84 247.477C1193.03 247.844 1193.12 248.297 1193.12 248.837V253H1191.85V248.99C1191.85 248.516 1191.72 248.145 1191.48 247.878C1191.23 247.608 1190.89 247.473 1190.46 247.473C1190.16 247.473 1189.9 247.537 1189.67 247.665C1189.44 247.793 1189.26 247.98 1189.13 248.227C1189 248.472 1188.93 248.767 1188.93 249.114ZM1199.73 248.053L1198.58 248.257C1198.53 248.109 1198.45 247.969 1198.35 247.835C1198.25 247.702 1198.11 247.592 1197.93 247.507C1197.76 247.422 1197.54 247.379 1197.27 247.379C1196.91 247.379 1196.61 247.46 1196.37 247.622C1196.13 247.781 1196.01 247.987 1196.01 248.24C1196.01 248.459 1196.09 248.635 1196.25 248.768C1196.41 248.902 1196.67 249.011 1197.03 249.097L1198.07 249.335C1198.67 249.474 1199.12 249.689 1199.42 249.979C1199.71 250.268 1199.86 250.645 1199.86 251.108C1199.86 251.5 1199.75 251.849 1199.52 252.156C1199.3 252.46 1198.98 252.699 1198.58 252.872C1198.18 253.045 1197.71 253.132 1197.19 253.132C1196.45 253.132 1195.86 252.976 1195.39 252.663C1194.93 252.348 1194.65 251.901 1194.54 251.321L1195.77 251.134C1195.85 251.455 1196.01 251.697 1196.24 251.862C1196.48 252.024 1196.79 252.105 1197.18 252.105C1197.6 252.105 1197.93 252.018 1198.18 251.845C1198.43 251.669 1198.55 251.455 1198.55 251.202C1198.55 250.997 1198.48 250.825 1198.32 250.686C1198.17 250.547 1197.94 250.442 1197.63 250.371L1196.52 250.128C1195.91 249.989 1195.46 249.767 1195.17 249.463C1194.88 249.159 1194.73 248.774 1194.73 248.308C1194.73 247.922 1194.84 247.584 1195.06 247.294C1195.27 247.004 1195.57 246.778 1195.95 246.616C1196.33 246.452 1196.77 246.369 1197.26 246.369C1197.97 246.369 1198.52 246.523 1198.93 246.83C1199.34 247.134 1199.6 247.541 1199.73 248.053Z" fill="black"/>
<path d="M816.087 197.293C815.696 196.902 815.063 196.902 814.672 197.293L808.308 203.657C807.918 204.047 807.918 204.681 808.308 205.071C808.699 205.462 809.332 205.462 809.723 205.071L815.379 199.414L821.036 205.071C821.427 205.462 822.06 205.462 822.45 205.071C822.841 204.681 822.841 204.047 822.45 203.657L816.087 197.293ZM815.379 233H816.379V198H815.379H814.379V233H815.379Z" fill="black"/>
<rect x="785.379" y="237" width="60" height="24" rx="6" fill="#01579B" fill-opacity="0.2"/>
<path d="M800.244 247.03C800.162 246.771 800.051 246.54 799.912 246.335C799.776 246.128 799.612 245.952 799.422 245.807C799.232 245.659 799.014 245.547 798.77 245.47C798.529 245.393 798.263 245.355 797.973 245.355C797.482 245.355 797.038 245.482 796.644 245.734C796.249 245.987 795.936 246.358 795.706 246.847C795.479 247.332 795.365 247.928 795.365 248.632C795.365 249.339 795.48 249.937 795.71 250.426C795.94 250.915 796.256 251.286 796.656 251.538C797.057 251.791 797.513 251.918 798.024 251.918C798.499 251.918 798.912 251.821 799.264 251.628C799.619 251.435 799.894 251.162 800.087 250.81C800.283 250.455 800.381 250.037 800.381 249.557L800.722 249.621H798.225V248.534H801.655V249.527C801.655 250.26 801.499 250.896 801.186 251.436C800.877 251.973 800.448 252.388 799.899 252.68C799.354 252.973 798.729 253.119 798.024 253.119C797.235 253.119 796.541 252.938 795.945 252.574C795.351 252.21 794.888 251.695 794.556 251.027C794.223 250.357 794.057 249.561 794.057 248.641C794.057 247.945 794.154 247.32 794.347 246.766C794.54 246.212 794.811 245.741 795.161 245.355C795.513 244.966 795.926 244.669 796.401 244.464C796.878 244.257 797.399 244.153 797.965 244.153C798.436 244.153 798.875 244.223 799.281 244.362C799.69 244.501 800.054 244.699 800.372 244.955C800.693 245.21 800.959 245.514 801.169 245.866C801.379 246.216 801.521 246.604 801.595 247.03H800.244ZM807.371 250.286V246.455H808.649V253H807.396V251.866H807.328C807.177 252.216 806.936 252.507 806.603 252.74C806.274 252.97 805.863 253.085 805.372 253.085C804.951 253.085 804.579 252.993 804.255 252.808C803.934 252.621 803.682 252.344 803.497 251.977C803.315 251.611 803.224 251.158 803.224 250.618V246.455H804.498V250.464C804.498 250.911 804.622 251.266 804.869 251.53C805.116 251.794 805.437 251.926 805.832 251.926C806.071 251.926 806.308 251.866 806.544 251.747C806.782 251.628 806.98 251.447 807.136 251.206C807.295 250.964 807.373 250.658 807.371 250.286ZM813.416 246.455V247.477H809.841V246.455H813.416ZM810.8 244.886H812.074V251.078C812.074 251.325 812.111 251.511 812.185 251.636C812.259 251.759 812.354 251.842 812.47 251.888C812.59 251.93 812.719 251.952 812.858 251.952C812.96 251.952 813.05 251.945 813.127 251.93C813.203 251.916 813.263 251.905 813.306 251.896L813.536 252.949C813.462 252.977 813.357 253.006 813.22 253.034C813.084 253.065 812.913 253.082 812.709 253.085C812.374 253.091 812.061 253.031 811.771 252.906C811.482 252.781 811.247 252.588 811.068 252.327C810.889 252.065 810.8 251.737 810.8 251.342V244.886ZM817.881 246.455V247.477H814.306V246.455H817.881ZM815.265 244.886H816.539V251.078C816.539 251.325 816.576 251.511 816.65 251.636C816.723 251.759 816.819 251.842 816.935 251.888C817.054 251.93 817.184 251.952 817.323 251.952C817.425 251.952 817.515 251.945 817.591 251.93C817.668 251.916 817.728 251.905 817.77 251.896L818 252.949C817.927 252.977 817.822 253.006 817.685 253.034C817.549 253.065 817.378 253.082 817.174 253.085C816.839 253.091 816.526 253.031 816.236 252.906C815.947 252.781 815.712 252.588 815.533 252.327C815.354 252.065 815.265 251.737 815.265 251.342V244.886ZM822.041 253.132C821.396 253.132 820.841 252.994 820.375 252.719C819.912 252.44 819.554 252.05 819.301 251.547C819.051 251.041 818.926 250.449 818.926 249.77C818.926 249.099 819.051 248.509 819.301 247.997C819.554 247.486 819.906 247.087 820.358 246.8C820.813 246.513 821.344 246.369 821.952 246.369C822.321 246.369 822.679 246.43 823.026 246.553C823.372 246.675 823.683 246.866 823.959 247.128C824.235 247.389 824.452 247.729 824.611 248.146C824.77 248.561 824.85 249.065 824.85 249.659V250.111H819.646V249.156H823.601C823.601 248.821 823.533 248.524 823.396 248.266C823.26 248.004 823.068 247.798 822.821 247.648C822.577 247.497 822.29 247.422 821.96 247.422C821.602 247.422 821.29 247.51 821.023 247.686C820.759 247.859 820.554 248.087 820.409 248.368C820.267 248.646 820.196 248.949 820.196 249.276V250.021C820.196 250.459 820.273 250.831 820.426 251.138C820.583 251.445 820.8 251.679 821.078 251.841C821.357 252 821.682 252.08 822.054 252.08C822.296 252.08 822.516 252.045 822.715 251.977C822.913 251.906 823.085 251.801 823.23 251.662C823.375 251.523 823.486 251.351 823.563 251.146L824.769 251.364C824.672 251.719 824.499 252.03 824.249 252.297C824.002 252.561 823.69 252.767 823.315 252.915C822.943 253.06 822.519 253.132 822.041 253.132ZM826.263 253V246.455H827.495V247.494H827.563C827.682 247.142 827.893 246.865 828.194 246.663C828.498 246.459 828.841 246.357 829.225 246.357C829.304 246.357 829.398 246.359 829.506 246.365C829.617 246.371 829.704 246.378 829.766 246.386V247.605C829.715 247.591 829.624 247.575 829.493 247.558C829.363 247.538 829.232 247.528 829.101 247.528C828.8 247.528 828.532 247.592 828.296 247.72C828.063 247.845 827.878 248.02 827.742 248.244C827.606 248.466 827.537 248.719 827.537 249.003V253H826.263ZM835.774 248.053L834.619 248.257C834.57 248.109 834.494 247.969 834.389 247.835C834.286 247.702 834.147 247.592 833.971 247.507C833.795 247.422 833.575 247.379 833.311 247.379C832.95 247.379 832.649 247.46 832.407 247.622C832.166 247.781 832.045 247.987 832.045 248.24C832.045 248.459 832.126 248.635 832.288 248.768C832.45 248.902 832.711 249.011 833.072 249.097L834.112 249.335C834.714 249.474 835.163 249.689 835.458 249.979C835.754 250.268 835.901 250.645 835.901 251.108C835.901 251.5 835.788 251.849 835.561 252.156C835.336 252.46 835.022 252.699 834.619 252.872C834.218 253.045 833.754 253.132 833.225 253.132C832.492 253.132 831.894 252.976 831.431 252.663C830.968 252.348 830.684 251.901 830.579 251.321L831.811 251.134C831.887 251.455 832.045 251.697 832.284 251.862C832.522 252.024 832.833 252.105 833.217 252.105C833.634 252.105 833.968 252.018 834.218 251.845C834.468 251.669 834.593 251.455 834.593 251.202C834.593 250.997 834.516 250.825 834.363 250.686C834.212 250.547 833.981 250.442 833.668 250.371L832.561 250.128C831.95 249.989 831.498 249.767 831.205 249.463C830.916 249.159 830.771 248.774 830.771 248.308C830.771 247.922 830.879 247.584 831.095 247.294C831.311 247.004 831.609 246.778 831.989 246.616C832.37 246.452 832.806 246.369 833.298 246.369C834.005 246.369 834.562 246.523 834.968 246.83C835.374 247.134 835.643 247.541 835.774 248.053Z" fill="black"/>
<path d="M253.587 197.293C253.196 196.902 252.563 196.902 252.172 197.293L245.808 203.657C245.418 204.047 245.418 204.681 245.808 205.071C246.199 205.462 246.832 205.462 247.223 205.071L252.879 199.414L258.536 205.071C258.927 205.462 259.56 205.462 259.95 205.071C260.341 204.681 260.341 204.047 259.95 203.657L253.587 197.293ZM252.879 233H253.879V198H252.879H251.879V233H252.879Z" fill="black"/>
<rect x="221.379" y="237" width="63" height="24" rx="6" fill="#01579B" fill-opacity="0.2"/>
<path d="M237.587 247.111H236.257C236.206 246.827 236.111 246.577 235.972 246.361C235.833 246.145 235.662 245.962 235.46 245.811C235.259 245.661 235.033 245.547 234.783 245.47C234.536 245.393 234.273 245.355 233.994 245.355C233.492 245.355 233.041 245.482 232.644 245.734C232.249 245.987 231.936 246.358 231.706 246.847C231.479 247.335 231.365 247.932 231.365 248.636C231.365 249.347 231.479 249.946 231.706 250.435C231.936 250.923 232.25 251.293 232.648 251.543C233.046 251.793 233.493 251.918 233.99 251.918C234.266 251.918 234.527 251.881 234.774 251.807C235.024 251.73 235.25 251.618 235.452 251.47C235.654 251.322 235.824 251.142 235.963 250.929C236.105 250.713 236.203 250.466 236.257 250.188L237.587 250.192C237.516 250.621 237.378 251.016 237.173 251.376C236.972 251.734 236.712 252.044 236.394 252.305C236.078 252.564 235.717 252.764 235.311 252.906C234.905 253.048 234.462 253.119 233.982 253.119C233.226 253.119 232.553 252.94 231.962 252.582C231.371 252.222 230.905 251.706 230.564 251.036C230.226 250.365 230.057 249.565 230.057 248.636C230.057 247.705 230.227 246.905 230.568 246.237C230.909 245.567 231.375 245.053 231.966 244.695C232.557 244.334 233.229 244.153 233.982 244.153C234.445 244.153 234.877 244.22 235.277 244.354C235.681 244.484 236.043 244.678 236.364 244.933C236.685 245.186 236.95 245.496 237.161 245.862C237.371 246.226 237.513 246.642 237.587 247.111ZM241.817 253.132C241.204 253.132 240.668 252.991 240.211 252.71C239.753 252.429 239.398 252.036 239.145 251.53C238.893 251.024 238.766 250.433 238.766 249.757C238.766 249.078 238.893 248.484 239.145 247.976C239.398 247.467 239.753 247.072 240.211 246.791C240.668 246.51 241.204 246.369 241.817 246.369C242.431 246.369 242.966 246.51 243.424 246.791C243.881 247.072 244.236 247.467 244.489 247.976C244.742 248.484 244.868 249.078 244.868 249.757C244.868 250.433 244.742 251.024 244.489 251.53C244.236 252.036 243.881 252.429 243.424 252.71C242.966 252.991 242.431 253.132 241.817 253.132ZM241.822 252.062C242.219 252.062 242.549 251.957 242.81 251.747C243.072 251.537 243.265 251.257 243.39 250.908C243.518 250.558 243.581 250.173 243.581 249.753C243.581 249.335 243.518 248.952 243.39 248.602C243.265 248.25 243.072 247.967 242.81 247.754C242.549 247.541 242.219 247.435 241.822 247.435C241.421 247.435 241.089 247.541 240.824 247.754C240.563 247.967 240.368 248.25 240.241 248.602C240.116 248.952 240.053 249.335 240.053 249.753C240.053 250.173 240.116 250.558 240.241 250.908C240.368 251.257 240.563 251.537 240.824 251.747C241.089 251.957 241.421 252.062 241.822 252.062ZM247.565 244.273V253H246.291V244.273H247.565ZM253.425 250.286V246.455H254.704V253H253.451V251.866H253.383C253.232 252.216 252.991 252.507 252.658 252.74C252.329 252.97 251.918 253.085 251.427 253.085C251.006 253.085 250.634 252.993 250.31 252.808C249.989 252.621 249.736 252.344 249.552 251.977C249.37 251.611 249.279 251.158 249.279 250.618V246.455H250.553V250.464C250.553 250.911 250.677 251.266 250.924 251.53C251.171 251.794 251.492 251.926 251.887 251.926C252.125 251.926 252.363 251.866 252.598 251.747C252.837 251.628 253.035 251.447 253.191 251.206C253.35 250.964 253.428 250.658 253.425 250.286ZM257.69 249.114V253H256.416V246.455H257.639V247.52H257.72C257.87 247.173 258.106 246.895 258.427 246.685C258.751 246.474 259.159 246.369 259.65 246.369C260.096 246.369 260.487 246.463 260.822 246.651C261.157 246.835 261.417 247.111 261.602 247.477C261.786 247.844 261.879 248.297 261.879 248.837V253H260.605V248.99C260.605 248.516 260.481 248.145 260.234 247.878C259.987 247.608 259.647 247.473 259.215 247.473C258.92 247.473 258.657 247.537 258.427 247.665C258.2 247.793 258.019 247.98 257.886 248.227C257.755 248.472 257.69 248.767 257.69 249.114ZM265.492 253.145C265.078 253.145 264.703 253.068 264.367 252.915C264.032 252.759 263.766 252.533 263.57 252.237C263.377 251.942 263.281 251.58 263.281 251.151C263.281 250.781 263.352 250.477 263.494 250.239C263.636 250 263.828 249.811 264.069 249.672C264.311 249.533 264.58 249.428 264.879 249.357C265.177 249.286 265.481 249.232 265.791 249.195C266.183 249.149 266.501 249.112 266.745 249.084C266.989 249.053 267.167 249.003 267.278 248.935C267.389 248.866 267.444 248.756 267.444 248.602V248.572C267.444 248.2 267.339 247.912 267.129 247.707C266.921 247.503 266.612 247.401 266.2 247.401C265.771 247.401 265.433 247.496 265.186 247.686C264.941 247.874 264.772 248.082 264.678 248.312L263.481 248.04C263.623 247.642 263.83 247.321 264.103 247.077C264.379 246.83 264.695 246.651 265.053 246.54C265.411 246.426 265.788 246.369 266.183 246.369C266.444 246.369 266.721 246.401 267.014 246.463C267.309 246.523 267.585 246.634 267.84 246.795C268.099 246.957 268.311 247.189 268.475 247.49C268.64 247.788 268.722 248.176 268.722 248.653V253H267.478V252.105H267.427C267.345 252.27 267.221 252.432 267.056 252.591C266.891 252.75 266.68 252.882 266.421 252.987C266.163 253.092 265.853 253.145 265.492 253.145ZM265.769 252.122C266.122 252.122 266.423 252.053 266.673 251.913C266.926 251.774 267.117 251.592 267.248 251.368C267.382 251.141 267.448 250.898 267.448 250.639V249.795C267.403 249.841 267.315 249.884 267.184 249.923C267.056 249.96 266.91 249.993 266.745 250.021C266.58 250.047 266.42 250.071 266.264 250.094C266.107 250.114 265.977 250.131 265.872 250.145C265.624 250.176 265.399 250.229 265.194 250.303C264.992 250.376 264.83 250.483 264.708 250.622C264.589 250.759 264.529 250.94 264.529 251.168C264.529 251.483 264.646 251.722 264.879 251.884C265.112 252.043 265.409 252.122 265.769 252.122ZM275.324 248.053L274.17 248.257C274.121 248.109 274.045 247.969 273.939 247.835C273.837 247.702 273.698 247.592 273.522 247.507C273.346 247.422 273.125 247.379 272.861 247.379C272.5 247.379 272.199 247.46 271.958 247.622C271.716 247.781 271.596 247.987 271.596 248.24C271.596 248.459 271.677 248.635 271.839 248.768C272 248.902 272.262 249.011 272.623 249.097L273.662 249.335C274.265 249.474 274.714 249.689 275.009 249.979C275.304 250.268 275.452 250.645 275.452 251.108C275.452 251.5 275.339 251.849 275.111 252.156C274.887 252.46 274.573 252.699 274.17 252.872C273.769 253.045 273.304 253.132 272.776 253.132C272.043 253.132 271.445 252.976 270.982 252.663C270.519 252.348 270.235 251.901 270.13 251.321L271.361 251.134C271.438 251.455 271.596 251.697 271.834 251.862C272.073 252.024 272.384 252.105 272.768 252.105C273.185 252.105 273.519 252.018 273.769 251.845C274.019 251.669 274.144 251.455 274.144 251.202C274.144 250.997 274.067 250.825 273.914 250.686C273.763 250.547 273.532 250.442 273.219 250.371L272.111 250.128C271.5 249.989 271.049 249.767 270.756 249.463C270.466 249.159 270.322 248.774 270.322 248.308C270.322 247.922 270.429 247.584 270.645 247.294C270.861 247.004 271.16 246.778 271.54 246.616C271.921 246.452 272.357 246.369 272.848 246.369C273.556 246.369 274.113 246.523 274.519 246.83C274.925 247.134 275.194 247.541 275.324 248.053Z" fill="black"/>
<rect x="0.379395" width="1198" height="185" rx="18" fill="#01579B" fill-opacity="0.2"/>
<rect x="48.3794" width="70" height="185" fill="#152849"/>
<rect x="134.379" width="70" height="185" fill="#152849"/>
<rect x="220.379" width="70" height="185" fill="#152849"/>
<rect x="306.379" width="70" height="185" fill="#152849"/>
<rect x="392.379" width="70" height="185" fill="#152849"/>
<rect x="478.379" width="70" height="185" fill="#152849"/>
<rect x="564.379" width="70" height="185" fill="#152849"/>
<rect x="650.379" width="70" height="185" fill="#152849"/>
<rect x="736.379" width="70" height="185" fill="#152849"/>
<rect x="822.379" width="70" height="185" fill="#152849"/>
<rect x="908.379" width="70" height="185" fill="#152849"/>
<rect x="994.379" width="70" height="185" fill="#152849"/>
<rect x="1080.38" width="70" height="185" fill="#152849"/>
</svg>
